<?xml version="1.0" encoding="UTF-8" standalone="no"?>
<svg
   xmlns:dc="http://purl.org/dc/elements/1.1/"
   xmlns:cc="http://creativecommons.org/ns#"
   xmlns:rdf="http://www.w3.org/1999/02/22-rdf-syntax-ns#"
   xmlns:svg="http://www.w3.org/2000/svg"
   xmlns="http://www.w3.org/2000/svg"
   xmlns:sodipodi="http://sodipodi.sourceforge.net/DTD/sodipodi-0.dtd"
   xmlns:inkscape="http://www.inkscape.org/namespaces/inkscape"
   width="210mm"
   height="297mm"
   viewBox="0 0 210 297"
   version="1.1"
   id="svg8"
   inkscape:version="1.0.2 (e86c870879, 2021-01-15)"
   sodipodi:docname="ecossistema.svg">
  <defs
     id="defs2" />
  <sodipodi:namedview
     id="base"
     pagecolor="#ffffff"
     bordercolor="#666666"
     borderopacity="1.0"
     inkscape:pageopacity="0.0"
     inkscape:pageshadow="2"
     inkscape:zoom="0.98994949"
     inkscape:cx="534.11859"
     inkscape:cy="599.91491"
     inkscape:document-units="mm"
     inkscape:current-layer="layer1"
     inkscape:document-rotation="0"
     showgrid="false"
     inkscape:window-width="1366"
     inkscape:window-height="705"
     inkscape:window-x="-8"
     inkscape:window-y="-8"
     inkscape:window-maximized="1" />
  <metadata
     id="metadata5">
    <rdf:RDF>
      <cc:Work
         rdf:about="">
        <dc:format>image/svg+xml</dc:format>
        <dc:type
           rdf:resource="http://purl.org/dc/dcmitype/StillImage" />
        <dc:title />
      </cc:Work>
    </rdf:RDF>
  </metadata>
  <g
     inkscape:label="Layer 1"
     inkscape:groupmode="layer"
     id="layer1">
    <path
       style="fill:#333333;stroke-width:0.0182931"
       d="m 107.63599,156.64662 c -0.0306,-0.078 -0.17701,-0.45459 -0.32533,-0.83692 -0.14832,-0.38232 -0.27244,-0.69839 -0.27583,-0.70238 -0.003,-0.004 -0.16066,-0.0628 -0.34952,-0.13075 l -0.34337,-0.12357 -0.0732,0.0411 c -0.0403,0.0226 -0.39255,0.22422 -0.78289,0.44796 -0.39035,0.22374 -0.71962,0.40297 -0.73173,0.3983 -0.0319,-0.0124 -0.76289,-0.6732 -0.76289,-0.68969 0,-0.008 0.0323,-0.087 0.0717,-0.17626 0.5303,-1.20026 0.6417,-1.45682 0.6417,-1.47777 0,-0.0138 -0.0694,-0.16927 -0.15423,-0.34612 l -0.15423,-0.32154 -0.0973,-0.0277 c -0.0535,-0.0153 -0.38626,-0.10576 -0.73943,-0.2013 -0.78531,-0.21227 -0.90763,-0.24608 -0.91327,-0.2525 -0.013,-0.0148 -0.0618,-1.02898 -0.05,-1.0388 0.008,-0.007 0.18064,-0.0761 0.38438,-0.1548 0.20374,-0.0787 0.37044,-0.14603 0.37044,-0.14956 0,-0.004 -0.35809,-0.007 -0.79576,-0.007 h -0.79575 v 2.37812 2.37811 h -1.3537 -1.353689 v -6.07452 -6.07454 l 3.708939,0.005 3.70894,0.006 0.005,1.74243 0.005,1.74241 h -2.35995 -2.35991 v 1.01527 1.01528 h 0.96073 0.96074 l -0.005,0.87602 -0.005,0.876 0.0915,-0.0353 c 0.0503,-0.0195 0.18734,-0.0732 0.30451,-0.11929 l 0.21304,-0.0839 0.12089,-0.34055 c 0.0665,-0.1873 0.12087,-0.34593 0.12081,-0.3525 -5e-5,-0.007 -0.0728,-0.13828 -0.16166,-0.29269 -0.0889,-0.15441 -0.291,-0.50551 -0.44919,-0.78024 l -0.28761,-0.49951 0.0591,-0.0675 c 0.0325,-0.0371 0.18988,-0.21296 0.3497,-0.39064 l 0.29059,-0.32305 0.18638,0.0823 c 0.19622,0.0866 0.68121,0.29926 1.17757,0.51642 l 0.29605,0.12951 0.33536,-0.16127 0.33536,-0.16126 0.12556,-0.46515 c 0.29205,-1.08198 0.34534,-1.27062 0.3619,-1.28103 0.01,-0.006 0.0766,-0.0124 0.14885,-0.0146 0.0723,-0.001 0.25077,-0.0111 0.39665,-0.0206 0.14589,-0.01 0.31536,-0.0173 0.37661,-0.0174 l 0.11135,-2.5e-4 0.0748,0.19665 c 0.0412,0.10811 0.17487,0.45184 0.29718,0.76374 0.1223,0.31191 0.2361,0.60321 0.25287,0.64735 l 0.0305,0.0802 0.32928,0.11542 c 0.1811,0.0635 0.34225,0.11584 0.35811,0.1164 0.0206,6e-4 1.34083,-0.74342 1.56786,-0.88374 0.0102,-0.007 0.19266,0.14558 0.40534,0.33759 0.29495,0.26628 0.38424,0.35684 0.37636,0.38168 -0.006,0.018 -0.16654,0.38857 -0.35745,0.82366 -0.19091,0.43511 -0.34712,0.8015 -0.34712,0.81421 0,0.0124 0.0694,0.16779 0.15423,0.34464 l 0.15423,0.32154 0.0973,0.0275 c 0.0535,0.015 0.3031,0.0823 0.55463,0.14943 0.25153,0.0671 0.60139,0.16046 0.77746,0.20752 l 0.32013,0.0856 0.0112,0.12716 c 0.006,0.07 0.0167,0.25888 0.0233,0.41986 0.007,0.16098 0.017,0.33903 0.0229,0.39565 l 0.0108,0.103 -0.35425,0.13873 c -0.19484,0.0763 -0.57652,0.22468 -0.84817,0.32973 l -0.49392,0.191 -0.12426,0.35264 -0.12426,0.35267 0.45008,0.78465 c 0.3899,0.67971 0.44691,0.78874 0.42636,0.8153 -0.0131,0.0168 -0.1675,0.19119 -0.3432,0.38738 -0.17571,0.1962 -0.32087,0.35907 -0.32256,0.36195 -0.002,0.003 -0.37847,-0.1605 -0.83725,-0.36302 l -0.83416,-0.36825 -0.31614,0.15058 c -0.17388,0.0828 -0.32598,0.15975 -0.33801,0.17094 -0.012,0.011 -0.11744,0.37845 -0.23425,0.81611 -0.11682,0.43767 -0.22137,0.8263 -0.23235,0.86364 -0.0181,0.0616 -0.027,0.0688 -0.095,0.0769 -0.1024,0.0124 -0.74634,0.0472 -0.87297,0.0472 h -0.10243 z m 0.76393,-3.35245 c 0.5034,-0.13392 0.90648,-0.4327 1.16498,-0.86355 0.70907,-1.18177 -0.0181,-2.69669 -1.37946,-2.87383 -0.3792,-0.0494 -0.74461,0.005 -1.07526,0.16087 -0.19835,0.0933 -0.43576,0.26368 -0.55547,0.39864 -0.0466,0.0526 -0.1034,0.11612 -0.12623,0.14134 -0.0856,0.0944 -0.2424,0.3847 -0.3024,0.55969 -0.24873,0.7254 -0.0343,1.54346 0.53932,2.05735 0.46753,0.41886 1.13246,0.57967 1.73451,0.41949 z"
       id="path647-1-4" />
    <path
       style="fill:#333333;fill-opacity:1;stroke-width:0.0612462"
       d="m 102.00057,210.09048 c -0.423,-0.27437 -3.525571,-3.42592 -3.637811,-3.69525 -0.12744,-0.30578 -0.11984,-0.70827 0.0186,-0.9799 0.13062,-0.25594 1.862121,-2.08303 2.657231,-2.80372 0.6223,-0.56407 0.86415,-0.66392 1.3346,-0.55106 0.17404,0.0418 0.39761,0.15954 0.54931,0.28939 l 0.25585,0.21899 -1.64335,1.64418 -1.643321,1.64416 1.377571,1.38088 1.37759,1.38088 0.40674,-0.42412 0.40674,-0.42414 0.54136,0.54389 0.54137,0.54388 -0.6096,0.61192 c -0.33529,0.33654 -0.69719,0.65347 -0.80425,0.70427 -0.32993,0.15656 -0.81311,0.12054 -1.12877,-0.0842 z m 4.13748,-0.12467 c -0.30007,-0.14069 -3.17955,-3.01708 -3.27378,-3.27035 -0.0928,-0.24952 -0.0787,-0.68464 0.0308,-0.94646 0.10355,-0.24803 0.31739,-0.50415 0.42075,-0.50415 0.036,0 0.79622,0.73037 1.6894,1.62308 l 1.6239,1.62307 1.37649,-1.37752 1.37653,-1.37753 -0.42661,-0.42988 -0.42657,-0.42989 0.49944,-0.49945 0.49946,-0.49946 0.53547,0.48473 c 0.69222,0.62667 0.88276,0.92026 0.88276,1.36024 0,0.182 -0.0421,0.41955 -0.0935,0.52788 -0.0515,0.10838 -0.88512,0.98476 -1.85272,1.94765 -1.46263,1.45555 -1.80055,1.76202 -2.00424,1.8178 -0.34797,0.0953 -0.5763,0.082 -0.85747,-0.0497 z m 3.70544,-0.17074 c -0.17003,-0.0623 -0.36751,-0.2833 -0.3674,-0.41144 6e-5,-0.0961 0.0262,-0.0748 0.10714,0.0857 0.146,0.29037 0.44102,0.37927 0.67663,0.20387 0.34872,-0.2596 0.31415,-0.68128 -0.0711,-0.86643 -0.23307,-0.11198 -0.51464,0.007 -0.62596,0.26099 -0.0453,0.10369 -0.0831,0.14646 -0.0845,0.095 -0.001,-0.0515 0.0418,-0.15656 0.0958,-0.23355 0.33992,-0.48529 1.08711,-0.13323 0.97585,0.45994 -0.0574,0.30556 -0.41637,0.51176 -0.70641,0.40574 z m -0.0529,-0.52328 -0.01,-0.29091 h 0.21437 c 0.18357,0 0.21335,0.0198 0.20725,0.13766 -0.007,0.10369 -0.0141,0.11128 -0.0351,0.0308 -0.017,-0.0649 -0.0866,-0.10715 -0.17665,-0.10715 -0.1853,0 -0.20064,0.16744 -0.0178,0.19479 0.0719,0.011 0.17151,0.0885 0.22126,0.17268 l 0.0906,0.15318 -0.12399,-0.13779 c -0.0682,-0.0758 -0.1658,-0.1378 -0.21703,-0.1378 -0.0511,0 -0.10507,0.0619 -0.11956,0.1378 -0.0141,0.0758 -0.0302,0.007 -0.0349,-0.15316 z m -5.03063,-3.07769 -1.1932,-1.19435 0.50457,-0.50455 0.50456,-0.50458 0.82856,0.82618 c 0.46088,0.45952 0.88223,0.93664 0.94953,1.07517 0.14521,0.29893 0.15534,0.6832 0.0262,0.99235 -0.09,0.21547 -0.31398,0.50416 -0.39112,0.50416 -0.0196,0 -0.57278,-0.53747 -1.22905,-1.19438 z m -3.33789,-0.54505 c -0.10107,-0.0445 -0.26095,-0.1589 -0.35535,-0.25414 l -0.17163,-0.17314 1.2123,-1.21347 1.21232,-1.21343 0.52047,0.52043 0.52045,0.52048 -0.82618,0.83139 c -0.45441,0.45724 -0.92844,0.88454 -1.05342,0.94952 -0.26594,0.13819 -0.78287,0.15411 -1.05896,0.0323 z m 5.02225,-0.1842 c -0.10107,-0.0447 -0.26371,-0.15649 -0.36143,-0.24823 l -0.17768,-0.1668 1.64714,-1.64796 1.64711,-1.64796 -1.3766,-1.37762 -1.37661,-1.37764 -0.43111,0.42823 -0.43107,0.42821 -0.51523,-0.5179 -0.51521,-0.51791 0.49204,-0.53855 c 0.27058,-0.29618 0.60546,-0.61889 0.74412,-0.71707 0.31872,-0.22566 0.78978,-0.27986 1.14448,-0.13158 0.30067,0.12564 3.62077,3.48187 3.78039,3.82155 0.13461,0.28646 0.13461,0.65203 0,0.94217 -0.13683,0.2947 -2.97739,3.16224 -3.2422,3.27289 -0.24992,0.10438 -0.78851,0.10244 -1.02814,-0.003 z m -1.18454,-1.22073 -0.50139,-0.50402 0.81449,-0.8065 c 1.10045,-1.0897 1.44136,-1.23438 2.11603,-0.89818 0.58149,0.28978 0.58875,0.2717 -0.57968,1.44555 -0.56784,0.57046 -1.10342,1.08893 -1.19024,1.15217 l -0.15781,0.11501 z m -6.314041,-1.02261 c -0.34272,-0.31165 -0.67677,-0.6718 -0.74236,-0.80035 -0.142096,-0.27864 -0.154412,-0.70958 -0.0289,-1.01028 0.12744,-0.30513 3.478521,-3.66227 3.781401,-3.78832 0.28598,-0.11901 0.72249,-0.12163 0.99919,-0.007 0.24163,0.10107 3.05803,2.92917 3.22624,3.23977 0.22796,0.42092 0.0961,1.09073 -0.28456,1.44612 l -0.16125,0.15051 -1.63664,-1.63577 -1.63664,-1.6358 -1.37759,1.38268 -1.377581,1.38266 0.444181,0.41005 0.44418,0.41004 -0.51334,0.51066 -0.513331,0.51067 z m 4.639601,-0.47199 c -0.90621,-0.91887 -1.02884,-1.10221 -1.02985,-1.53983 -7.1e-4,-0.26472 0.13943,-0.61927 0.33136,-0.83841 l 0.18889,-0.21576 1.22441,1.22794 1.22445,1.22794 -0.52249,0.52248 -0.5225,0.52247 z"
       id="path303-2" />
    <path
       style="fill:#333333;stroke-width:0.0642445"
       d="m 54.736059,162.79024 c -0.15667,-0.0682 -0.22151,-0.15023 -0.27473,-0.3479 -0.0842,-0.31287 -0.32141,-0.60878 -0.56288,-0.70233 -0.0979,-0.038 -0.34245,-0.1012 -0.54348,-0.14055 -0.42987,-0.0842 -0.69454,-0.26818 -0.69454,-0.48267 0,-0.0909 0.12951,-0.3001 0.32123,-0.51929 0.17667,-0.20188 0.32123,-0.41833 0.32123,-0.48097 0,-0.26734 -0.4555,-0.50374 -1.89523,-0.98355 -1.74791,-0.58251 -1.87294,-0.75434 -0.90312,-1.24096 0.57149,-0.28675 0.80676,-0.45233 0.80676,-0.56779 0,-0.14257 -0.44189,-0.333 -1.43118,-0.61676 -1.07804,-0.30921 -1.40425,-0.45199 -1.62084,-0.70936 -0.39798,-0.473 -0.31498,-0.58247 3.05133,-4.0241 3.31409,-3.38826 3.2426,-3.33041 4.04568,-3.27276 0.7551,0.0543 0.47233,-0.19943 5.54595,4.97498 1.67715,1.71046 1.84387,1.98618 1.52118,2.51549 -0.28996,0.47559 -0.83141,0.77559 -2.40698,1.3336 -1.58868,0.56265 -1.93781,0.74052 -1.85861,0.94689 0.024,0.0626 0.26547,0.24158 0.53665,0.39801 0.6344,0.36591 0.80613,0.54423 0.74783,0.77653 -0.0831,0.33127 -0.41127,0.57321 -1.03321,0.76184 -0.31734,0.0962 -0.74424,0.26361 -0.94865,0.37191 -0.39969,0.21177 -0.76815,0.57532 -0.71733,0.70775 0.0173,0.0449 0.16086,0.15979 0.31923,0.25545 0.33273,0.20097 0.35808,0.31159 0.11128,0.48569 -0.75873,0.53521 -1.89524,0.7967 -2.43756,0.56085 z m 0.70071,-9.94961 c 0.85409,-0.55025 0.76368,-0.53083 1.23747,-0.26587 l 0.41449,0.23181 0.033,-0.14881 c 0.0182,-0.0819 0.0699,-0.36129 0.11474,-0.62101 l 0.0816,-0.47219 0.51396,0.42122 c 0.46948,0.38478 0.51895,0.41042 0.57164,0.29624 0.0341,-0.0737 0.0341,-0.20263 0,-0.31477 -0.0838,-0.27586 -2.23511,-2.49827 -2.5621,-2.64682 -0.33991,-0.1544 -0.81073,-0.15275 -1.1119,0.004 -0.13116,0.0682 -0.7463,0.63918 -1.3671,1.26882 -1.61912,1.64222 -1.85864,1.91837 -1.85864,2.14306 0,0.24793 0.0783,0.26355 1.20729,0.24087 l 0.91817,-0.0185 0.36572,-0.79614 0.3657,-0.79611 0.22364,0.90854 c 0.12302,0.49971 0.24531,0.90855 0.2718,0.90855 0.0265,0 0.2877,-0.15431 0.58043,-0.34291 z m -4.20937,8.2433 c -0.34219,-0.26916 -0.28154,-0.5457 0.16734,-0.763 0.36062,-0.17458 0.87287,-0.18121 1.0794,-0.0139 l 0.14917,0.12081 -0.15549,0.22693 c -0.20191,0.29465 -0.61442,0.55942 -0.87161,0.55942 -0.11184,0 -0.2778,-0.0585 -0.36881,-0.1302 z m 8.71096,-0.0947 c -0.2567,-0.10962 -0.33366,-0.35101 -0.1845,-0.57864 0.12674,-0.19342 0.25872,-0.20118 0.53692,-0.0316 0.27068,0.16503 0.39628,0.41918 0.26707,0.54039 -0.14611,0.1371 -0.39616,0.16522 -0.61949,0.0699 z m 0.50846,-1.18763 c -0.28682,-0.0679 -0.31428,-0.1088 -0.20383,-0.30342 0.16334,-0.28778 0.41447,-0.42563 0.83027,-0.4557 0.47671,-0.0345 0.64113,0.005 0.85945,0.20756 0.22688,0.21028 0.2301,0.46742 0.007,0.55229 -0.19196,0.0729 -1.18361,0.0725 -1.49277,-6.7e-4 z"
       id="path253" />
    <path
       style="fill:#333333;fill-opacity:1;stroke-width:0.0222394"
       d="m 155.247,187.98773 c -0.60389,-0.17942 -1.09288,-0.39247 -1.45679,-0.63473 -0.47851,-0.31855 -0.69291,-0.67986 -0.73072,-1.23131 l -0.0142,-0.20727 -0.42256,-0.10797 c -0.68502,-0.17496 -1.41491,-0.44016 -2.17103,-0.7888 -0.3105,-0.14315 -0.35183,-0.15686 -0.38919,-0.12909 -0.0955,0.071 -0.49352,0.28354 -0.70467,0.37637 -1.56021,0.68593 -3.41938,0.65867 -5.58444,-0.0819 -1.07602,-0.36806 -2.02112,-0.85798 -2.87028,-1.48789 l -0.20277,-0.15041 -0.19121,-0.0156 c -0.80398,-0.0652 -1.60381,-0.59493 -2.13614,-1.41467 -0.34102,-0.52514 -0.50621,-1.0501 -0.50621,-1.60884 0,-0.571 0.15087,-0.96984 0.49845,-1.31781 0.28853,-0.28887 0.60863,-0.42391 1.05833,-0.44649 0.40091,-0.0202 0.85012,0.10204 1.23568,0.33613 0.0929,0.0563 0.17873,0.10479 0.19074,0.10756 0.0124,0.003 0.0446,-0.065 0.0724,-0.15071 0.0526,-0.16198 0.14493,-0.35784 0.2165,-0.45934 0.0399,-0.0565 0.0417,-0.13558 0.0417,-1.84033 0,-0.97969 0.007,-1.78104 0.0167,-1.78075 0.01,2.5e-4 0.1649,0.22411 0.34606,0.49738 0.39738,0.59938 0.54522,0.78743 0.89379,1.13678 0.64904,0.65053 1.32793,1.05894 1.9619,1.18023 0.23381,0.0447 0.25115,0.0421 0.3836,-0.0566 0.14378,-0.10728 0.45295,-0.26776 0.6346,-0.32938 0.25529,-0.0867 0.4774,-0.12108 0.77838,-0.12081 0.40157,3.5e-4 0.66748,0.0601 1.03003,0.23146 l 0.18495,0.0874 0.23761,-0.0591 c 1.62012,-0.40331 3.01708,-1.36455 3.65098,-2.51216 0.0474,-0.0856 0.13269,-0.27077 0.18969,-0.41143 0.24353,-0.60049 0.41986,-0.88086 0.61736,-0.98161 0.0717,-0.0366 0.12081,-0.0442 0.23914,-0.0376 0.18052,0.0111 0.30335,0.0813 0.39769,0.22998 0.0929,0.14654 0.18441,0.65311 0.25096,1.38969 0.0392,0.43322 0.0398,2.54452 0.001,3.0357 -0.19285,2.43954 -0.61064,3.99787 -1.37949,5.14551 -0.10148,0.15142 -0.18149,0.27793 -0.17791,0.28115 0.003,0.003 0.14163,0.0733 0.30676,0.15577 0.57726,0.28823 1.17708,0.64285 1.58645,0.93793 0.16187,0.11667 0.20866,0.14061 0.23621,0.12081 0.25678,-0.18394 0.64754,-0.25217 0.96724,-0.16892 0.29484,0.0768 0.62098,0.31109 0.76172,0.54721 0.12937,0.21695 0.22359,0.63169 0.28632,1.25976 0.0391,0.39204 0.0699,1.58473 0.0407,1.58215 -0.0111,-10e-4 -0.18025,-0.0493 -0.37596,-0.10755 z m -0.37955,-1.10834 c -0.0405,-0.5788 -0.10701,-0.99214 -0.19172,-1.18902 -0.10715,-0.24886 -0.3824,-0.37178 -0.59164,-0.26416 -0.18416,0.0947 -0.27469,0.25091 -0.28941,0.4993 -0.0124,0.21321 0.0242,0.39627 0.10328,0.51306 0.10962,0.16201 0.51539,0.44744 0.81451,0.573 0.16303,0.0685 0.16865,0.0637 0.15498,-0.13213 z m -7.54885,-1.87396 c 0.71158,-0.0532 1.29381,-0.20167 1.8778,-0.47922 0.16372,-0.0779 0.17336,-0.0862 0.13351,-0.11487 -0.0237,-0.017 -0.21317,-0.14183 -0.42111,-0.27728 l -0.37808,-0.24631 -0.44478,0.004 c -0.67336,0.006 -1.24064,-0.0736 -2.14612,-0.29949 -0.40591,-0.10121 -1.32741,-0.3733 -1.35382,-0.39967 -0.004,-0.004 0.36571,-0.003 0.82286,0.005 1.60342,0.0255 2.69633,-0.0794 3.19796,-0.30683 0.2207,-0.1001 0.3131,-0.20621 0.3131,-0.35966 0,-0.13751 -0.0875,-0.42015 -0.18938,-0.61171 -0.0554,-0.10397 -0.0965,-0.19306 -0.0917,-0.19798 0.017,-0.017 0.38978,0.21608 0.55285,0.34567 0.30726,0.24416 0.48425,0.51113 0.50206,0.75729 l 0.01,0.12592 0.21452,0.0757 c 0.11805,0.0416 0.34462,0.12786 0.50363,0.19186 l 0.28911,0.11626 0.0631,-0.0591 c 0.0347,-0.0324 0.1331,-0.16337 0.21855,-0.29079 0.87293,-1.30204 1.34957,-3.71811 1.30125,-6.59585 -0.0138,-0.78302 -0.0463,-1.39803 -0.0809,-1.50117 -0.0185,-0.0554 -0.0188,-0.0552 -0.0471,0.0222 -0.0583,0.15997 -0.28908,0.59615 -0.41773,0.78949 -0.61612,0.92604 -1.61621,1.70255 -2.82763,2.19553 -0.0917,0.0373 -0.3119,0.11598 -0.48926,0.1749 -0.17737,0.0588 -0.32233,0.11502 -0.32213,0.12482 1.6e-4,0.01 0.0496,0.0924 0.10949,0.18341 0.12702,0.19259 0.23825,0.44544 0.3079,0.6998 0.0422,0.15466 0.0493,0.23589 0.0493,0.58016 0,0.34942 -0.007,0.42429 -0.0515,0.58887 -0.0743,0.27188 -0.16426,0.47475 -0.31129,0.70178 -0.67523,1.04259 -1.97782,1.40411 -3.08433,0.85603 -0.27151,-0.13448 -0.46018,-0.27498 -0.68431,-0.50957 l -0.17054,-0.1785 -0.11736,0.10093 c -0.43065,0.36991 -1.06921,0.543 -1.62975,0.44172 -0.0979,-0.0177 -0.19042,-0.0324 -0.2057,-0.0326 -0.0202,-3.3e-4 -0.0279,0.0544 -0.0279,0.20066 0,0.51433 -0.19398,0.98092 -0.54165,1.3028 l -0.15726,0.1456 0.0548,0.0414 c 0.12536,0.0947 0.73753,0.45909 1.00852,0.6004 0.80719,0.42092 2.03164,0.83047 2.94928,0.98649 0.64234,0.10921 1.18575,0.1417 1.71244,0.10244 z m -6.30491,-2.26946 c 0.0979,-0.0369 0.16949,-0.0864 0.26882,-0.18578 0.14442,-0.14442 0.21275,-0.28329 0.25812,-0.52458 0.0319,-0.16925 0.008,-0.53201 -0.0486,-0.74502 -0.0602,-0.22591 -0.22997,-0.58368 -0.38237,-0.80578 -0.23741,-0.34605 -0.66135,-0.70853 -1.00777,-0.86171 -0.15529,-0.0686 -0.45491,-0.14491 -0.56711,-0.14431 -0.0761,4.3e-4 -0.0748,0.003 0.0581,0.0664 0.14634,0.071 0.29007,0.20975 0.36076,0.34833 0.091,0.17826 0.12095,0.33475 0.11018,0.57546 -0.01,0.20283 -0.0185,0.24445 -0.0896,0.39423 -0.0949,0.19978 -0.22188,0.33381 -0.38866,0.41017 -0.16366,0.075 -0.39498,0.0654 -0.54461,-0.0222 -0.19278,-0.11295 -0.35476,-0.34211 -0.41817,-0.59153 -0.0162,-0.0632 -0.0177,-0.0494 -0.007,0.0638 0.0422,0.47475 0.32917,1.03477 0.7408,1.44639 0.53776,0.53776 1.17394,0.75887 1.65766,0.57611 z m 5.42442,-1.44097 c 0.007,-0.011 -0.0262,-0.0302 -0.0726,-0.0442 -0.22077,-0.0661 -0.49638,-0.31274 -0.61088,-0.54658 -0.0638,-0.13033 -0.12537,-0.37144 -0.12537,-0.49111 0,-0.1197 0.0616,-0.3608 0.12564,-0.49177 0.0624,-0.12771 0.24321,-0.34642 0.32053,-0.38779 0.0358,-0.0192 0.0341,-0.007 -0.0138,0.0953 -0.096,0.20612 -0.0649,0.4159 0.0871,0.58861 0.11598,0.13186 0.23074,0.18341 0.4091,0.18403 0.16272,5.7e-4 0.25394,-0.0325 0.36917,-0.13365 0.12951,-0.11363 0.17923,-0.22773 0.17923,-0.41075 0,-0.23201 -0.10121,-0.39458 -0.31087,-0.49915 l -0.0881,-0.044 0.11446,-0.001 c 0.39584,-0.003 0.80719,0.30186 0.95881,0.71078 l 0.0454,0.12233 0.0164,-0.0864 c 0.0331,-0.17443 -0.003,-0.52511 -0.0735,-0.73225 -0.0949,-0.27517 -0.18808,-0.42053 -0.41661,-0.64966 -0.22929,-0.22987 -0.45113,-0.35737 -0.75415,-0.43346 -0.21295,-0.0536 -0.5536,-0.0581 -0.7804,-0.0111 -0.20379,0.0425 -0.51953,0.20047 -0.70055,0.35047 -0.4242,0.35153 -0.64993,0.92165 -0.58018,1.46548 0.0957,0.7454 0.61253,1.29267 1.36968,1.45006 0.086,0.0179 0.52015,0.0142 0.53172,-0.004 z m -3.45622,-0.35913 c 0.0293,-0.0188 0.029,-0.0215 -0.003,-0.022 -0.0808,-5.6e-4 -0.30953,-0.14078 -0.41875,-0.25627 -0.33896,-0.35839 -0.34308,-0.88445 -0.01,-1.25508 0.11129,-0.12384 0.15985,-0.14614 0.11142,-0.0514 -0.15481,0.30295 0.0693,0.67176 0.40818,0.67176 0.19231,0 0.38464,-0.13925 0.44503,-0.32222 0.063,-0.19061 -0.0402,-0.44161 -0.22057,-0.53685 l -0.098,-0.0518 h 0.10272 c 0.11694,0 0.30766,0.065 0.42597,0.14537 0.0554,0.0376 0.0827,0.046 0.0881,0.0269 0.004,-0.0152 0.0257,-0.10977 0.0471,-0.21011 l 0.0392,-0.18248 -0.0617,-0.0808 c -0.0783,-0.10258 -0.30019,-0.26786 -0.44944,-0.33466 -0.58556,-0.26206 -1.3035,-0.0453 -1.62907,0.49192 -0.13933,0.22989 -0.18677,0.39467 -0.18882,0.65597 l -0.003,0.23398 0.11639,0.15521 c 0.0641,0.0853 0.17764,0.27369 0.25255,0.4185 0.14935,0.28868 0.20604,0.34257 0.46057,0.43781 0.20277,0.0758 0.51318,0.11114 0.58273,0.0661 z m -0.61722,-3.25212 0.10562,-0.0283 -0.26681,-0.26187 -0.2668,-0.26186 v 0.35378 0.35381 l 0.16124,-0.0637 c 0.0886,-0.0351 0.20874,-0.0763 0.2668,-0.0919 z"
       id="path269" />
    <text
       xml:space="preserve"
       style="font-style:normal;font-weight:normal;font-size:4.23333px;line-height:1.25;font-family:sans-serif;letter-spacing:0px;word-spacing:0px;fill:#808080;fill-opacity:1;stroke:none;stroke-width:0.365306"
       x="96.463669"
       y="138.83321"
       id="text28-4-2-2-5-21-1-6-9"><tspan
         sodipodi:role="line"
         id="tspan26-5-2-27-3-3-1-1-0"
         x="96.463669"
         y="138.83321"
         style="font-style:normal;font-variant:normal;font-weight:normal;font-stretch:normal;font-size:4.23333px;font-family:'Source Sans Pro';-inkscape-font-specification:'Source Sans Pro';fill:#808080;stroke-width:0.365306">FreeCAD</tspan></text>
    <text
       xml:space="preserve"
       style="font-style:normal;font-weight:normal;font-size:4.23333px;line-height:1.25;font-family:sans-serif;letter-spacing:0px;word-spacing:0px;fill:#808080;fill-opacity:1;stroke:none;stroke-width:0.365306"
       x="44.798943"
       y="27.708204"
       id="text28-4-2-2-5-21-1-6-9-2"><tspan
         sodipodi:role="line"
         id="tspan26-5-2-27-3-3-1-1-0-33"
         x="44.798943"
         y="27.708204"
         style="font-style:normal;font-variant:normal;font-weight:normal;font-stretch:normal;font-size:4.23333px;font-family:'Source Sans Pro';-inkscape-font-specification:'Source Sans Pro';fill:#808080;stroke-width:0.365306">Blender</tspan></text>
    <text
       xml:space="preserve"
       style="font-style:normal;font-weight:normal;font-size:4.23333px;line-height:1.25;font-family:sans-serif;letter-spacing:0px;word-spacing:0px;fill:#808080;fill-opacity:1;stroke:none;stroke-width:0.365306"
       x="140.75612"
       y="168.90495"
       id="text28-4-2-2-5-21-1-6-9-23"><tspan
         sodipodi:role="line"
         id="tspan26-5-2-27-3-3-1-1-0-4"
         x="140.75612"
         y="168.90495"
         style="font-style:normal;font-variant:normal;font-weight:normal;font-stretch:normal;font-size:4.23333px;font-family:'Source Sans Pro';-inkscape-font-specification:'Source Sans Pro';fill:#808080;stroke-width:0.365306">Gimp</tspan></text>
    <text
       xml:space="preserve"
       style="font-style:normal;font-weight:normal;font-size:4.23333px;line-height:1.25;font-family:sans-serif;letter-spacing:0px;word-spacing:0px;fill:#808080;fill-opacity:1;stroke:none;stroke-width:0.365306"
       x="46.21352"
       y="144.01497"
       id="text28-4-2-2-5-21-1-6-9-7"><tspan
         sodipodi:role="line"
         id="tspan26-5-2-27-3-3-1-1-0-39"
         x="46.21352"
         y="144.01497"
         style="font-style:normal;font-variant:normal;font-weight:normal;font-stretch:normal;font-size:4.23333px;font-family:'Source Sans Pro';-inkscape-font-specification:'Source Sans Pro';fill:#808080;stroke-width:0.365306">Inkscape</tspan></text>
    <text
       xml:space="preserve"
       style="font-style:normal;font-weight:normal;font-size:4.23333px;line-height:1.25;font-family:sans-serif;letter-spacing:0px;word-spacing:0px;fill:#808080;fill-opacity:1;stroke:none;stroke-width:0.365306"
       x="96.575539"
       y="194.79533"
       id="text28-4-2-2-5-21-1-6-9-5-2"><tspan
         sodipodi:role="line"
         id="tspan26-5-2-27-3-3-1-1-0-37-9"
         x="96.575539"
         y="194.79533"
         style="font-style:normal;font-variant:normal;font-weight:normal;font-stretch:normal;font-size:4.23333px;font-family:'Source Sans Pro';-inkscape-font-specification:'Source Sans Pro';fill:#808080;stroke-width:0.365306">BIM | IFC</tspan></text>
    <path
       style="fill:#333333;fill-opacity:1;stroke-width:0.0729937"
       d="m 19.927829,183.96067 c -0.08481,-0.0172 -0.241004,-0.1219 -0.347119,-0.23266 l -0.192938,-0.20138 0.01866,-6.52565 0.01866,-6.52564 0.248023,-0.16715 0.248023,-0.16714 h 5.051495 5.051495 l 0.248023,0.16714 0.248023,0.16715 0.01866,6.53426 0.01866,6.53428 -0.224126,0.21476 -0.224126,0.21476 -5.013583,0.01 c -2.757465,0.005 -5.08296,-0.004 -5.167758,-0.022 z m 9.679893,-5.00514 v -4.03246 l -2.134606,-2.13553 -2.134612,-2.13553 h -2.50051 -2.500505 v 6.16798 6.168 h 4.635117 4.635116 z m -6.700392,2.00756 c 0.269235,-0.014 0.729099,-0.0141 1.021918,-2.1e-4 0.292818,0.0139 0.07254,0.0254 -0.489518,0.0254 -0.562054,1.4e-4 -0.801635,-0.0113 -0.5324,-0.0253 z m 2.703973,-2.8e-4 c 0.351282,-0.0134 0.92611,-0.0134 1.277391,0 0.351287,0.0134 0.06388,0.0243 -0.638692,0.0243 -0.702568,0 -0.989985,-0.011 -0.638699,-0.0243 z m -3.279026,-0.56608 c 2.78e-4,-0.28104 0.01352,-0.38706 0.02934,-0.23562 0.01583,0.15145 0.01552,0.38139 -5.48e-4,0.51096 -0.01612,0.12958 -0.02905,0.005 -0.02875,-0.27534 z m 5.255567,0 c 2.78e-4,-0.28104 0.01352,-0.38706 0.02934,-0.23562 0.01583,0.15145 0.01552,0.38139 -5.49e-4,0.51096 -0.01612,0.12958 -0.02905,0.005 -0.02875,-0.27534 z m -4.680514,-0.96649 c 0.269235,-0.014 0.729099,-0.0141 1.021918,-2.2e-4 0.292818,0.0139 0.07254,0.0254 -0.489518,0.0254 -0.562054,1.4e-4 -0.801635,-0.0113 -0.5324,-0.0252 z m 2.703973,-2.7e-4 c 0.351282,-0.0134 0.92611,-0.0134 1.277391,0 0.351287,0.0134 0.06388,0.0243 -0.638692,0.0243 -0.702568,0 -0.989985,-0.011 -0.638699,-0.0243 z m -3.279026,-0.5661 c 2.78e-4,-0.28103 0.01352,-0.38705 0.02934,-0.2356 0.01583,0.15144 0.01552,0.38137 -5.48e-4,0.51096 -0.01612,0.12957 -0.02905,0.005 -0.02875,-0.27536 z m 5.255567,0 c 2.78e-4,-0.28103 0.01352,-0.38705 0.02934,-0.2356 0.01583,0.15144 0.01552,0.38137 -5.49e-4,0.51096 -0.01612,0.12957 -0.02905,0.005 -0.02875,-0.27536 z m -5.255567,-1.53288 c 2.78e-4,-0.28103 0.01352,-0.38704 0.02934,-0.2356 0.01583,0.15144 0.01552,0.38138 -5.48e-4,0.51096 -0.01612,0.12958 -0.02905,0.005 -0.02875,-0.27536 z m 5.255567,0 c 2.78e-4,-0.28103 0.01352,-0.38704 0.02934,-0.2356 0.01583,0.15144 0.01552,0.38138 -5.49e-4,0.51096 -0.01612,0.12958 -0.02905,0.005 -0.02875,-0.27536 z m 2.019878,-5.25556 v -1.42339 h -1.477425 -1.47743 l 1.421985,1.42339 c 0.782088,0.78285 1.446926,1.42337 1.477424,1.42337 0.03052,0 0.05543,-0.64052 0.05543,-1.42337 z m -9.873652,-2.30838 c 0.04953,-0.0499 0.108413,-0.0723 0.130887,-0.0499 0.02249,0.0225 -0.01807,0.0634 -0.09002,0.0907 -0.104028,0.0397 -0.112415,0.0312 -0.04085,-0.0408 z m 10.384611,0.009 c -0.06579,-0.0426 -0.07479,-0.0712 -0.02255,-0.0719 0.04782,-5.5e-4 0.107238,0.0317 0.132049,0.0719 0.05602,0.0906 0.03076,0.0906 -0.109492,0 z"
       id="path383" />
    <text
       xml:space="preserve"
       style="font-style:normal;font-weight:normal;font-size:4.23333px;line-height:1.25;font-family:sans-serif;letter-spacing:0px;word-spacing:0px;fill:#808080;fill-opacity:1;stroke:none;stroke-width:0.365306"
       x="19.032602"
       y="145.24635"
       id="text28-4-2-2-5-21-1-6-9-9"><tspan
         sodipodi:role="line"
         id="tspan26-5-2-27-3-3-1-1-0-8"
         x="19.032602"
         y="145.24635"
         style="font-style:normal;font-variant:normal;font-weight:normal;font-stretch:normal;font-size:4.23333px;font-family:'Source Sans Pro';-inkscape-font-specification:'Source Sans Pro';fill:#808080;stroke-width:0.365306">Writer</tspan></text>
    <text
       xml:space="preserve"
       style="font-style:normal;font-weight:normal;font-size:4.23333px;line-height:1.25;font-family:sans-serif;text-align:start;letter-spacing:0px;word-spacing:0px;text-anchor:start;fill:#808080;fill-opacity:1;stroke:none;stroke-width:0.365306"
       x="21.591019"
       y="168.88341"
       id="text28-4-2-2-5-21-1-6-9-9-7"><tspan
         sodipodi:role="line"
         x="21.591019"
         y="168.88341"
         style="font-style:normal;font-variant:normal;font-weight:normal;font-stretch:normal;font-size:4.23333px;font-family:'Source Sans Pro';-inkscape-font-specification:'Source Sans Pro';text-align:start;text-anchor:start;fill:#808080;stroke-width:0.365306"
         id="tspan511">Calc</tspan></text>
    <text
       xml:space="preserve"
       style="font-style:normal;font-weight:normal;font-size:4.23333px;line-height:1.25;font-family:sans-serif;letter-spacing:0px;word-spacing:0px;fill:#808080;fill-opacity:1;stroke:none;stroke-width:0.365306"
       x="47.966251"
       y="172.43205"
       id="text28-4-2-2-5-21-1-6-9-2-7"><tspan
         sodipodi:role="line"
         id="tspan26-5-2-27-3-3-1-1-0-33-1"
         x="47.966251"
         y="172.43205"
         style="font-style:normal;font-variant:normal;font-weight:normal;font-stretch:normal;font-size:4.23333px;font-family:'Source Sans Pro';-inkscape-font-specification:'Source Sans Pro';fill:#808080;stroke-width:0.365306">Qcad</tspan></text>
    <path
       style="fill:#333333;fill-opacity:1;stroke-width:0.0457131"
       d="m 99.442012,182.8543 c -0.07804,-0.034 -0.191179,-0.13087 -0.251426,-0.21535 l -0.109537,-0.15358 -0.01213,-5.41729 -0.01214,-5.41729 0.103585,-0.20205 c 0.201283,-0.39265 -0.05728,-0.36882 4.002186,-0.36882 3.02139,0 3.59931,0.0102 3.70348,0.0656 0.14868,0.079 2.85805,2.79488 2.93,2.93708 0.0789,0.15603 0.0603,0.47836 -0.0365,0.63156 -0.11544,0.18268 -5.32209,5.64172 -5.48056,5.74623 -0.17852,0.11773 -0.50792,0.10789 -0.69094,-0.0207 -0.16948,-0.11904 -2.71926,-2.915 -2.84522,-3.11993 -0.10077,-0.16395 -0.10948,-0.43756 -0.0194,-0.60797 0.0359,-0.0679 0.7096,-0.76388 1.49711,-1.54665 1.2447,-1.23721 1.45423,-1.42716 1.60334,-1.45348 0.31549,-0.0557 0.48169,0.0683 1.60692,1.19925 l 1.04704,1.05232 -0.45114,0.48514 -0.45114,0.48515 -0.81305,-0.8121 -0.81304,-0.8121 -0.84568,0.84476 c -0.46514,0.46462 -0.84569,0.85553 -0.84569,0.8687 0,0.0429 1.65947,1.85123 1.69887,1.85123 0.0446,0 4.28956,-4.44838 4.28956,-4.49509 0,-0.0172 -0.43746,-0.46842 -0.97214,-1.00266 l -0.97213,-0.97135 -2.94778,0.0118 -2.94777,0.0118 -0.0116,4.58275 -0.0116,4.58275 h 2.96055 2.96055 l 0.98197,-0.98276 0.98196,-0.98277 -0.72436,-0.72543 c -0.6262,-0.62711 -0.71793,-0.73708 -0.67693,-0.81147 0.0261,-0.0473 0.22935,-0.26614 0.45167,-0.48625 l 0.40422,-0.4002 1.03463,1.04018 c 0.82017,0.82457 1.04422,1.07572 1.08089,1.21161 0.0974,0.36077 0.068,0.39984 -1.44751,1.92324 -0.7709,0.77493 -1.45719,1.43834 -1.52508,1.47425 -0.17845,0.0944 -7.20717,0.0943 -7.423982,-5e-5 z"
       id="path595" />
    <text
       xml:space="preserve"
       style="font-style:normal;font-weight:normal;font-size:4.23333px;line-height:1.25;font-family:sans-serif;letter-spacing:0px;word-spacing:0px;fill:#808080;fill-opacity:1;stroke:none;stroke-width:0.365306"
       x="93.84124"
       y="167.03523"
       id="text28-4-2-2-5-21-1-6-9-2-8"><tspan
         sodipodi:role="line"
         id="tspan26-5-2-27-3-3-1-1-0-33-0"
         x="93.84124"
         y="167.03523"
         style="font-style:normal;font-variant:normal;font-weight:normal;font-stretch:normal;font-size:4.23333px;font-family:'Source Sans Pro';-inkscape-font-specification:'Source Sans Pro';fill:#808080;stroke-width:0.365306">BlenderBIM</tspan></text>
    <text
       xml:space="preserve"
       style="font-style:normal;font-weight:normal;font-size:4.23333px;line-height:1.25;font-family:sans-serif;letter-spacing:0px;word-spacing:0px;fill:#808080;fill-opacity:1;stroke:none;stroke-width:0.365306"
       x="167.28804"
       y="141.33286"
       id="text28-4-2-2-5-21-1-6-9-2-2"><tspan
         sodipodi:role="line"
         id="tspan26-5-2-27-3-3-1-1-0-33-6"
         x="167.28804"
         y="141.33286"
         style="font-style:normal;font-variant:normal;font-weight:normal;font-stretch:normal;font-size:4.23333px;font-family:'Source Sans Pro';-inkscape-font-specification:'Source Sans Pro';fill:#808080;stroke-width:0.365306">Blender Cycles</tspan></text>
    <path
       style="fill:#333333;fill-opacity:1;stroke-width:0.0729937"
       d="m 19.677627,160.66256 c -0.08481,-0.0172 -0.241004,-0.1219 -0.347119,-0.23266 l -0.192938,-0.20138 0.01866,-6.52565 0.01866,-6.52564 0.248023,-0.16715 0.248023,-0.16714 h 5.051495 5.051495 l 0.248023,0.16714 0.248023,0.16715 0.01866,6.53426 0.01866,6.53428 -0.224126,0.21476 -0.224126,0.21476 -5.013583,0.01 c -2.757465,0.005 -5.08296,-0.004 -5.167758,-0.022 z m 9.679893,-5.00514 v -4.03246 l -2.134606,-2.13553 -2.134612,-2.13553 h -2.50051 -2.500505 v 6.16798 6.168 h 4.635117 4.635116 z m -6.700392,2.00756 c 0.269235,-0.014 0.729099,-0.0141 1.021918,-2.1e-4 0.292818,0.0139 0.07254,0.0254 -0.489518,0.0254 -0.562054,1.4e-4 -0.801635,-0.0113 -0.5324,-0.0253 z m 2.703973,-2.8e-4 c 0.351282,-0.0134 0.92611,-0.0134 1.277391,0 0.351287,0.0134 0.06388,0.0243 -0.638692,0.0243 -0.702568,0 -0.989985,-0.011 -0.638699,-0.0243 z m -3.279026,-0.56608 c 2.78e-4,-0.28104 0.01352,-0.38706 0.02934,-0.23562 0.01583,0.15145 0.01552,0.38139 -5.48e-4,0.51096 -0.01612,0.12958 -0.02905,0.005 -0.02875,-0.27534 z m 5.255567,0 c 2.78e-4,-0.28104 0.01352,-0.38706 0.02934,-0.23562 0.01583,0.15145 0.01552,0.38139 -5.49e-4,0.51096 -0.01612,0.12958 -0.02905,0.005 -0.02875,-0.27534 z m -4.680514,-0.96649 c 0.269235,-0.014 0.729099,-0.0141 1.021918,-2.2e-4 0.292818,0.0139 0.07254,0.0254 -0.489518,0.0254 -0.562054,1.4e-4 -0.801635,-0.0113 -0.5324,-0.0252 z m 2.703973,-2.7e-4 c 0.351282,-0.0134 0.92611,-0.0134 1.277391,0 0.351287,0.0134 0.06388,0.0243 -0.638692,0.0243 -0.702568,0 -0.989985,-0.011 -0.638699,-0.0243 z m -3.279026,-0.5661 c 2.78e-4,-0.28103 0.01352,-0.38705 0.02934,-0.2356 0.01583,0.15144 0.01552,0.38137 -5.48e-4,0.51096 -0.01612,0.12957 -0.02905,0.005 -0.02875,-0.27536 z m 5.255567,0 c 2.78e-4,-0.28103 0.01352,-0.38705 0.02934,-0.2356 0.01583,0.15144 0.01552,0.38137 -5.49e-4,0.51096 -0.01612,0.12957 -0.02905,0.005 -0.02875,-0.27536 z m -5.255567,-1.53288 c 2.78e-4,-0.28103 0.01352,-0.38704 0.02934,-0.2356 0.01583,0.15144 0.01552,0.38138 -5.48e-4,0.51096 -0.01612,0.12958 -0.02905,0.005 -0.02875,-0.27536 z m 5.255567,0 c 2.78e-4,-0.28103 0.01352,-0.38704 0.02934,-0.2356 0.01583,0.15144 0.01552,0.38138 -5.49e-4,0.51096 -0.01612,0.12958 -0.02905,0.005 -0.02875,-0.27536 z m 2.019878,-5.25556 v -1.42339 h -1.477425 -1.47743 l 1.421985,1.42339 c 0.782088,0.78285 1.446926,1.42337 1.477424,1.42337 0.03052,0 0.05543,-0.64052 0.05543,-1.42337 z m -9.873652,-2.30838 c 0.04953,-0.0499 0.108413,-0.0723 0.130887,-0.0499 0.02249,0.0225 -0.01807,0.0634 -0.09002,0.0907 -0.104028,0.0397 -0.112415,0.0312 -0.04085,-0.0408 z m 10.384611,0.009 c -0.06579,-0.0426 -0.07479,-0.0712 -0.02255,-0.0719 0.04782,-5.5e-4 0.107238,0.0317 0.132049,0.0719 0.05602,0.0906 0.03076,0.0906 -0.109492,0 z"
       id="path383-8" />
    <path
       style="fill:#333333;fill-opacity:1;stroke-width:0.054109"
       d="m 49.262784,186.46757 c -0.06282,-0.0256 -0.166339,-0.11282 -0.229969,-0.19372 l -0.11569,-0.14707 v -5.86269 -5.86269 l 0.157867,-0.17671 0.157867,-0.17671 3.181082,-0.0148 3.181083,-0.0148 1.612036,1.61203 1.612029,1.61203 v 1.28409 1.28408 l 0.581675,1.1e-4 c 0.667885,1.1e-4 0.881036,0.0737 1.081101,0.37316 0.121618,0.18205 0.12282,0.20169 0.122626,2.00203 -2.09e-4,2.35527 0.03336,2.2846 -1.109039,2.3322 l -0.649308,0.027 -0.02703,0.82413 c -0.02669,0.81269 -0.02912,0.82622 -0.177069,0.97397 l -0.150014,0.14982 -4.557478,0.0106 c -2.50661,0.006 -4.608899,-0.0104 -4.671744,-0.0361 z m 8.798778,-1.32722 v -0.62225 h -3.623424 -3.623425 l -0.189953,-0.16679 c -0.106558,-0.0935 -0.214152,-0.2539 -0.245071,-0.36523 -0.03197,-0.11514 -0.05476,-0.89132 -0.05421,-1.84878 6.95e-4,-1.5179 0.0093,-1.66893 0.106086,-1.88212 0.08032,-0.17695 0.160042,-0.25669 0.336993,-0.33699 0.221901,-0.10072 0.382471,-0.10526 3.762409,-0.1064 l 3.53062,-0.001 v -0.99729 -0.9973 l -1.203928,-0.0172 c -1.789376,-0.0256 -1.772072,-0.007 -1.772072,-1.85806 v -1.16224 h -2.705451 -2.705459 v 5.49207 5.49207 h 4.193458 4.193452 z m -4.347378,-1.84732 c 0.211838,-0.10053 0.425531,-0.35485 0.479335,-0.57049 0.03426,-0.13725 0.02057,-0.14989 -0.249095,-0.22997 -0.35281,-0.10477 -0.373916,-0.10483 -0.373916,-6.9e-4 0,0.14568 -0.252312,0.34925 -0.43287,0.34925 -0.105425,0 -0.216341,-0.0491 -0.300063,-0.13281 -0.115384,-0.11539 -0.132814,-0.18188 -0.132814,-0.50675 0,-0.48194 0.117386,-0.65906 0.436804,-0.65906 0.201364,0 0.428943,0.13978 0.428943,0.26344 0,0.0444 0.576886,-0.0648 0.631635,-0.11951 0.04809,-0.0482 -0.140382,-0.34715 -0.307499,-0.48777 -0.339717,-0.28586 -0.981881,-0.31899 -1.430269,-0.0738 -0.422668,0.23112 -0.628209,0.90832 -0.459779,1.51483 0.0688,0.24775 0.341295,0.57013 0.563891,0.66712 0.236766,0.10316 0.91684,0.0952 1.145697,-0.0134 z m 1.3909,-0.11413 0.05025,-0.17586 h 0.417212 0.417219 l 0.05025,0.17586 c 0.05025,0.17572 0.05052,0.17586 0.44745,0.19188 0.363707,0.0147 0.393945,0.008 0.358662,-0.0812 -0.0212,-0.0534 -0.223367,-0.59121 -0.449278,-1.19501 l -0.410735,-1.09781 -0.408282,0.0156 -0.408276,0.0156 -0.418233,1.10923 c -0.230025,0.61009 -0.419374,1.14079 -0.420764,1.17935 -0.0021,0.0522 0.09019,0.066 0.360872,0.0541 0.358745,-0.0158 0.364048,-0.0183 0.413647,-0.19186 z m 0.251026,-0.79131 c 0,-0.0639 0.08929,-0.35181 0.19511,-0.62906 0.01842,-0.0482 0.07269,0.0508 0.133572,0.24349 0.141612,0.44812 0.138728,0.45993 -0.11225,0.45993 -0.147512,0 -0.216432,-0.0237 -0.216432,-0.0744 z m 3.078806,0.93668 c 0.532735,-0.1228 0.762941,-0.45634 0.762941,-1.10539 0,-0.45576 -0.08832,-0.7288 -0.310926,-0.9612 -0.198424,-0.20716 -0.425357,-0.25602 -1.190605,-0.25637 l -0.662839,-2.1e-4 v 1.1904 1.1904 l 0.581675,-0.001 c 0.319924,-6.9e-4 0.688809,-0.0261 0.819754,-0.0562 z m -0.643895,-1.14601 v -0.63617 h 0.186361 c 0.117914,0 0.240977,0.047 0.335061,0.12791 0.135211,0.1163 0.148978,0.16238 0.151814,0.50831 0.0042,0.46925 -0.08024,0.58897 -0.433468,0.61706 l -0.239768,0.019 z m -0.920356,-6.12926 -1.10874,-1.11027 -0.01717,0.25805 c -0.0095,0.14192 -0.0095,0.60703 0,1.03357 0.01536,0.69389 0.02822,0.78361 0.122202,0.85222 0.08169,0.0596 0.328083,0.0767 1.108746,0.0767 h 1.00371 z"
       id="path89" />
    <path
       style="fill:#333333;stroke-width:0.0676833"
       d="m 181.40766,158.06017 c -1.10875,-0.15826 -2.19026,-0.67502 -2.97722,-1.42254 -0.86611,-0.82272 -1.35802,-1.77032 -1.44494,-2.78344 l -0.045,-0.52401 -1.45519,1.1945 c -0.80035,0.65697 -1.57703,1.24998 -1.72593,1.3178 -0.71523,0.32577 -1.41008,-0.0275 -1.41008,-0.71681 0,-0.6019 0.11156,-0.70686 3.06105,-2.87949 1.49083,-1.09816 2.71148,-2.02431 2.7126,-2.05811 0.001,-0.036 -0.54939,-0.045 -1.33474,-0.0214 -0.73522,0.0219 -1.46978,0.0151 -1.6324,-0.0156 -0.83937,-0.15761 -1.01171,-1.19998 -0.26573,-1.60727 0.20292,-0.11073 0.50789,-0.12482 3.39362,-0.15558 l 3.17065,-0.0338 -0.9204,-0.73341 c -0.50623,-0.40338 -0.966,-0.79849 -1.02171,-0.87803 -0.17015,-0.2429 -0.12578,-0.4851 0.13006,-0.70976 0.33615,-0.29514 0.70665,-0.34098 1.10935,-0.13724 0.43166,0.21837 4.96016,3.71132 5.43959,4.19568 1.19122,1.2035 1.60628,3.04839 1.04738,4.65549 -0.24234,0.69686 -0.54597,1.17088 -1.12708,1.75961 -0.83629,0.84727 -1.82896,1.3468 -3.03872,1.52916 -0.71157,0.10728 -1.04954,0.11225 -1.66527,0.0243 z m 1.55671,-2.39671 c 2.46107,-0.51901 3.37498,-3.21777 1.63333,-4.82318 -1.31731,-1.21426 -3.44718,-1.19594 -4.70439,0.0404 -1.17338,1.15395 -1.15945,2.81907 0.033,3.93449 0.4711,0.4407 0.99093,0.71529 1.60828,0.84956 0.54828,0.11929 0.85943,0.11902 1.42984,-0.001 z m -1.42911,-1.42856 c -0.66311,-0.23515 -1.11019,-0.8669 -1.10753,-1.56496 0.001,-0.49139 0.16448,-0.85602 0.52789,-1.18367 1.09486,-0.98713 2.84113,-0.4685 3.13995,0.93253 0.15019,0.70421 -0.38339,1.55877 -1.1327,1.81407 -0.39682,0.13517 -1.04946,0.13614 -1.42761,0.001 z"
       id="path727-5-1" />
    <path
       style="fill:#333333;stroke-width:0.0642445"
       d="m 145.68067,160.15174 c -0.15667,-0.0682 -0.22151,-0.15023 -0.27473,-0.3479 -0.0842,-0.31287 -0.32141,-0.60878 -0.56288,-0.70233 -0.0979,-0.038 -0.34245,-0.1012 -0.54348,-0.14055 -0.42987,-0.0842 -0.69454,-0.26818 -0.69454,-0.48267 0,-0.0909 0.12951,-0.3001 0.32123,-0.51929 0.17667,-0.20188 0.32123,-0.41833 0.32123,-0.48097 0,-0.26734 -0.4555,-0.50374 -1.89523,-0.98355 -1.74791,-0.58251 -1.87294,-0.75434 -0.90312,-1.24096 0.57149,-0.28675 0.80676,-0.45233 0.80676,-0.56779 0,-0.14257 -0.44189,-0.333 -1.43118,-0.61676 -1.07804,-0.30921 -1.40425,-0.45199 -1.62084,-0.70936 -0.39798,-0.473 -0.31498,-0.58247 3.05133,-4.0241 3.31409,-3.38826 3.2426,-3.33041 4.04568,-3.27276 0.7551,0.0543 0.47233,-0.19943 5.54595,4.97498 1.67715,1.71046 1.84387,1.98618 1.52118,2.51549 -0.28996,0.47559 -0.83141,0.77559 -2.40698,1.3336 -1.58868,0.56265 -1.93781,0.74052 -1.85861,0.94689 0.024,0.0626 0.26547,0.24158 0.53665,0.39801 0.6344,0.36591 0.80613,0.54423 0.74783,0.77653 -0.0831,0.33127 -0.41127,0.57321 -1.03321,0.76184 -0.31734,0.0962 -0.74424,0.26361 -0.94865,0.37191 -0.39969,0.21177 -0.76815,0.57532 -0.71733,0.70775 0.0173,0.0449 0.16086,0.15979 0.31923,0.25545 0.33273,0.20097 0.35808,0.31159 0.11128,0.48569 -0.75873,0.53521 -1.89524,0.7967 -2.43756,0.56085 z m 0.70071,-9.94961 c 0.85409,-0.55025 0.76368,-0.53083 1.23747,-0.26587 l 0.41449,0.23181 0.033,-0.14881 c 0.0182,-0.0819 0.0699,-0.36129 0.11474,-0.62101 l 0.0816,-0.47219 0.51396,0.42122 c 0.46948,0.38478 0.51895,0.41042 0.57164,0.29624 0.0341,-0.0737 0.0341,-0.20263 0,-0.31477 -0.0838,-0.27586 -2.23511,-2.49827 -2.5621,-2.64682 -0.33991,-0.1544 -0.81073,-0.15275 -1.1119,0.004 -0.13116,0.0682 -0.7463,0.63918 -1.3671,1.26882 -1.61912,1.64222 -1.85864,1.91837 -1.85864,2.14306 0,0.24793 0.0783,0.26355 1.20729,0.24087 l 0.91817,-0.0185 0.36572,-0.79614 0.3657,-0.79611 0.22364,0.90854 c 0.12302,0.49971 0.24531,0.90855 0.2718,0.90855 0.0265,0 0.2877,-0.15431 0.58043,-0.34291 z m -4.20937,8.2433 c -0.34219,-0.26916 -0.28154,-0.5457 0.16734,-0.763 0.36062,-0.17458 0.87287,-0.18121 1.0794,-0.0139 l 0.14917,0.12081 -0.15549,0.22693 c -0.20191,0.29465 -0.61442,0.55942 -0.87161,0.55942 -0.11184,0 -0.2778,-0.0585 -0.36881,-0.1302 z m 8.71096,-0.0947 c -0.2567,-0.10962 -0.33366,-0.35101 -0.1845,-0.57864 0.12674,-0.19342 0.25872,-0.20118 0.53692,-0.0316 0.27068,0.16503 0.39628,0.41918 0.26707,0.54039 -0.14611,0.1371 -0.39616,0.16522 -0.61949,0.0699 z m 0.50846,-1.18763 c -0.28682,-0.0679 -0.31428,-0.1088 -0.20383,-0.30342 0.16334,-0.28778 0.41447,-0.42563 0.83027,-0.4557 0.47671,-0.0345 0.64113,0.005 0.85945,0.20756 0.22688,0.21028 0.2301,0.46742 0.007,0.55229 -0.19196,0.0729 -1.18361,0.0725 -1.49277,-6.7e-4 z"
       id="path253-3" />
    <text
       xml:space="preserve"
       style="font-style:normal;font-weight:normal;font-size:4.23333px;line-height:1.25;font-family:sans-serif;letter-spacing:0px;word-spacing:0px;fill:#808080;fill-opacity:1;stroke:none;stroke-width:0.365306"
       x="137.15814"
       y="141.37645"
       id="text28-4-2-2-5-21-1-6-9-7-6"><tspan
         sodipodi:role="line"
         id="tspan26-5-2-27-3-3-1-1-0-39-7"
         x="137.15814"
         y="141.37645"
         style="font-style:normal;font-variant:normal;font-weight:normal;font-stretch:normal;font-size:4.23333px;font-family:'Source Sans Pro';-inkscape-font-specification:'Source Sans Pro';fill:#808080;stroke-width:0.365306">Inkscape</tspan></text>
    <path
       style="fill:#333333;fill-opacity:1;stroke-width:0.0729937"
       d="m 175.97611,218.55966 c -0.0848,-0.0172 -0.241,-0.1219 -0.34712,-0.23266 l -0.19294,-0.20138 0.0187,-6.52565 0.0187,-6.52564 0.24803,-0.16715 0.24802,-0.16714 h 5.05149 5.0515 l 0.24802,0.16714 0.24802,0.16715 0.0187,6.53426 0.0187,6.53428 -0.22412,0.21476 -0.22413,0.21476 -5.01358,0.01 c -2.75747,0.005 -5.08296,-0.004 -5.16776,-0.022 z m 9.67989,-5.00514 v -4.03246 l -2.1346,-2.13553 -2.13462,-2.13553 h -2.50051 -2.5005 v 6.16798 6.168 h 4.63512 4.63511 z m -6.70039,2.00756 c 0.26924,-0.014 0.7291,-0.0141 1.02192,-2.1e-4 0.29282,0.0139 0.0725,0.0254 -0.48952,0.0254 -0.56205,1.4e-4 -0.80163,-0.0113 -0.5324,-0.0253 z m 2.70397,-2.8e-4 c 0.35129,-0.0134 0.92611,-0.0134 1.27739,0 0.35129,0.0134 0.0639,0.0243 -0.63869,0.0243 -0.70257,0 -0.98998,-0.011 -0.6387,-0.0243 z m -3.27902,-0.56608 c 2.8e-4,-0.28104 0.0135,-0.38706 0.0293,-0.23562 0.0158,0.15145 0.0155,0.38139 -5.5e-4,0.51096 -0.0161,0.12958 -0.029,0.005 -0.0288,-0.27534 z m 5.25556,0 c 2.8e-4,-0.28104 0.0135,-0.38706 0.0293,-0.23562 0.0158,0.15145 0.0155,0.38139 -5.4e-4,0.51096 -0.0161,0.12958 -0.029,0.005 -0.0288,-0.27534 z m -4.68051,-0.96649 c 0.26924,-0.014 0.7291,-0.0141 1.02192,-2.2e-4 0.29282,0.0139 0.0725,0.0254 -0.48952,0.0254 -0.56205,1.4e-4 -0.80163,-0.0113 -0.5324,-0.0252 z m 2.70397,-2.7e-4 c 0.35129,-0.0134 0.92611,-0.0134 1.27739,0 0.35129,0.0134 0.0639,0.0243 -0.63869,0.0243 -0.70257,0 -0.98998,-0.011 -0.6387,-0.0243 z m -3.27902,-0.5661 c 2.8e-4,-0.28103 0.0135,-0.38705 0.0293,-0.2356 0.0158,0.15144 0.0155,0.38137 -5.5e-4,0.51096 -0.0161,0.12957 -0.029,0.005 -0.0288,-0.27536 z m 5.25556,0 c 2.8e-4,-0.28103 0.0135,-0.38705 0.0293,-0.2356 0.0158,0.15144 0.0155,0.38137 -5.4e-4,0.51096 -0.0161,0.12957 -0.029,0.005 -0.0288,-0.27536 z m -5.25556,-1.53288 c 2.8e-4,-0.28103 0.0135,-0.38704 0.0293,-0.2356 0.0158,0.15144 0.0155,0.38138 -5.5e-4,0.51096 -0.0161,0.12958 -0.029,0.005 -0.0288,-0.27536 z m 5.25556,0 c 2.8e-4,-0.28103 0.0135,-0.38704 0.0293,-0.2356 0.0158,0.15144 0.0155,0.38138 -5.4e-4,0.51096 -0.0161,0.12958 -0.029,0.005 -0.0288,-0.27536 z m 2.01988,-5.25556 v -1.42339 h -1.47742 -1.47743 l 1.42198,1.42339 c 0.78209,0.78285 1.44693,1.42337 1.47743,1.42337 0.0305,0 0.0554,-0.64052 0.0554,-1.42337 z m -9.87365,-2.30838 c 0.0495,-0.0499 0.10841,-0.0723 0.13089,-0.0499 0.0225,0.0225 -0.0181,0.0634 -0.09,0.0907 -0.10403,0.0397 -0.11242,0.0312 -0.0409,-0.0408 z m 10.38461,0.009 c -0.0658,-0.0426 -0.0748,-0.0712 -0.0225,-0.0719 0.0478,-5.5e-4 0.10724,0.0317 0.13205,0.0719 0.056,0.0906 0.0308,0.0906 -0.10949,0 z"
       id="path383-2" />
    <text
       xml:space="preserve"
       style="font-style:normal;font-weight:normal;font-size:4.23333px;line-height:1.25;font-family:sans-serif;letter-spacing:0px;word-spacing:0px;fill:#808080;fill-opacity:1;stroke:none;stroke-width:0.365306"
       x="175.08089"
       y="179.84535"
       id="text28-4-2-2-5-21-1-6-9-9-15"><tspan
         sodipodi:role="line"
         id="tspan26-5-2-27-3-3-1-1-0-8-6"
         x="175.08089"
         y="179.84535"
         style="font-style:normal;font-variant:normal;font-weight:normal;font-stretch:normal;font-size:4.23333px;font-family:'Source Sans Pro';-inkscape-font-specification:'Source Sans Pro';fill:#808080;stroke-width:0.365306">Writer</tspan></text>
    <text
       xml:space="preserve"
       style="font-style:normal;font-weight:normal;font-size:4.23333px;line-height:1.25;font-family:sans-serif;text-align:start;letter-spacing:0px;word-spacing:0px;text-anchor:start;fill:#808080;fill-opacity:1;stroke:none;stroke-width:0.365306"
       x="177.6393"
       y="203.48241"
       id="text28-4-2-2-5-21-1-6-9-9-7-5"><tspan
         sodipodi:role="line"
         x="177.6393"
         y="203.48241"
         style="font-style:normal;font-variant:normal;font-weight:normal;font-stretch:normal;font-size:4.23333px;font-family:'Source Sans Pro';-inkscape-font-specification:'Source Sans Pro';text-align:start;text-anchor:start;fill:#808080;stroke-width:0.365306"
         id="tspan511-5">Calc</tspan></text>
    <text
       xml:space="preserve"
       style="font-style:normal;font-weight:normal;font-size:4.23333px;line-height:1.25;font-family:sans-serif;letter-spacing:0px;word-spacing:0px;fill:#808080;fill-opacity:1;stroke:none;stroke-width:0.365306"
       x="171.71735"
       y="168.50499"
       id="text28-4-2-2-5-21-1-6-9-9-1-7"><tspan
         sodipodi:role="line"
         id="tspan26-5-2-27-3-3-1-1-0-8-2-7"
         x="171.71735"
         y="168.50499"
         style="font-style:normal;font-variant:normal;font-weight:normal;font-stretch:normal;font-size:4.23333px;font-family:'Source Sans Pro';-inkscape-font-specification:'Source Sans Pro';fill:#808080;stroke-width:0.365306">LibreOffice</tspan></text>
    <path
       style="fill:#333333;fill-opacity:1;stroke-width:0.0729937"
       d="m 175.72591,195.26155 c -0.0848,-0.0172 -0.24101,-0.1219 -0.34712,-0.23266 l -0.19294,-0.20138 0.0187,-6.52565 0.0187,-6.52564 0.24802,-0.16715 0.24803,-0.16714 h 5.05149 5.0515 l 0.24802,0.16714 0.24802,0.16715 0.0187,6.53426 0.0187,6.53428 -0.22412,0.21476 -0.22413,0.21476 -5.01358,0.01 c -2.75747,0.005 -5.08296,-0.004 -5.16776,-0.022 z m 9.67989,-5.00514 v -4.03246 l -2.13461,-2.13553 -2.13461,-2.13553 h -2.50051 -2.5005 v 6.16798 6.168 h 4.63511 4.63512 z m -6.70039,2.00756 c 0.26923,-0.014 0.7291,-0.0141 1.02192,-2.1e-4 0.29281,0.0139 0.0725,0.0254 -0.48952,0.0254 -0.56206,1.4e-4 -0.80164,-0.0113 -0.5324,-0.0253 z m 2.70397,-2.8e-4 c 0.35128,-0.0134 0.92611,-0.0134 1.27739,0 0.35129,0.0134 0.0639,0.0243 -0.63869,0.0243 -0.70257,0 -0.98998,-0.011 -0.6387,-0.0243 z m -3.27902,-0.56608 c 2.7e-4,-0.28104 0.0135,-0.38706 0.0293,-0.23562 0.0158,0.15145 0.0155,0.38139 -5.5e-4,0.51096 -0.0161,0.12958 -0.0291,0.005 -0.0288,-0.27534 z m 5.25556,0 c 2.8e-4,-0.28104 0.0135,-0.38706 0.0293,-0.23562 0.0158,0.15145 0.0155,0.38139 -5.5e-4,0.51096 -0.0161,0.12958 -0.0291,0.005 -0.0288,-0.27534 z m -4.68051,-0.96649 c 0.26923,-0.014 0.7291,-0.0141 1.02192,-2.2e-4 0.29281,0.0139 0.0725,0.0254 -0.48952,0.0254 -0.56206,1.4e-4 -0.80164,-0.0113 -0.5324,-0.0252 z m 2.70397,-2.7e-4 c 0.35128,-0.0134 0.92611,-0.0134 1.27739,0 0.35129,0.0134 0.0639,0.0243 -0.63869,0.0243 -0.70257,0 -0.98998,-0.011 -0.6387,-0.0243 z m -3.27902,-0.5661 c 2.7e-4,-0.28103 0.0135,-0.38705 0.0293,-0.2356 0.0158,0.15144 0.0155,0.38137 -5.5e-4,0.51096 -0.0161,0.12957 -0.0291,0.005 -0.0288,-0.27536 z m 5.25556,0 c 2.8e-4,-0.28103 0.0135,-0.38705 0.0293,-0.2356 0.0158,0.15144 0.0155,0.38137 -5.5e-4,0.51096 -0.0161,0.12957 -0.0291,0.005 -0.0288,-0.27536 z m -5.25556,-1.53288 c 2.7e-4,-0.28103 0.0135,-0.38704 0.0293,-0.2356 0.0158,0.15144 0.0155,0.38138 -5.5e-4,0.51096 -0.0161,0.12958 -0.0291,0.005 -0.0288,-0.27536 z m 5.25556,0 c 2.8e-4,-0.28103 0.0135,-0.38704 0.0293,-0.2356 0.0158,0.15144 0.0155,0.38138 -5.5e-4,0.51096 -0.0161,0.12958 -0.0291,0.005 -0.0288,-0.27536 z m 2.01988,-5.25556 v -1.42339 h -1.47742 -1.47743 l 1.42198,1.42339 c 0.78209,0.78285 1.44693,1.42337 1.47742,1.42337 0.0305,0 0.0554,-0.64052 0.0554,-1.42337 z m -9.87365,-2.30838 c 0.0495,-0.0499 0.10841,-0.0723 0.13089,-0.0499 0.0225,0.0225 -0.0181,0.0634 -0.09,0.0907 -0.10403,0.0397 -0.11242,0.0312 -0.0409,-0.0408 z m 10.38461,0.009 c -0.0658,-0.0426 -0.0748,-0.0712 -0.0226,-0.0719 0.0478,-5.5e-4 0.10724,0.0317 0.13205,0.0719 0.056,0.0906 0.0308,0.0906 -0.10949,0 z"
       id="path383-8-6" />
    <path
       style="fill:none;stroke:#000000;stroke-width:0.236348px;stroke-linecap:butt;stroke-linejoin:miter;stroke-opacity:1"
       d="m 45.47251,210.15476 c -4.222532,0.75595 -27.760053,-4.69228 -27.760053,-4.69228 l -4.011949,-25.82421 2.248625,-55.82651 c 0,0 24.64839,-5.78361 26.759655,-5.78361 2.111266,0 26.980592,7.06298 26.980592,7.06298 0,0 4.737628,13.24815 4.737628,15.13803 0,1.88989 0.904829,25.32441 0.904829,31.37203 0,6.04762 -0.904829,23.43452 -5.730578,29.10416 -4.825749,5.66965 -14.572819,8.0672 -16.684085,8.44518 -2.111265,0.37797 -7.444664,1.00423 -7.444664,1.00423 z"
       id="path189"
       sodipodi:nodetypes="ccccscssssc" />
    <path
       style="fill:none;stroke:#000000;stroke-width:0.24342px;stroke-linecap:butt;stroke-linejoin:miter;stroke-opacity:1"
       d="m 121.21567,157.36779 c 0,0 0.80976,-20.58301 -0.15003,-26.25265 -0.95979,-5.66964 -12.04443,-5.45314 -14.61144,-5.77574 -5.49941,-0.69111 -15.311902,3.93632 -15.311902,3.93632 -3.05084,4.95424 -1.968268,38.54571 -1.968268,38.54571 0,0 -2.032353,46.63627 -0.36862,50.85583 3.474504,8.81203 12.1126,5.61918 15.3119,6.37513 3.19929,0.75596 10.76435,-0.16442 13.32378,-6.968 2.55944,-6.80357 1.48639,-23.04868 1.48639,-28.71832 0,-5.66964 2.28819,-31.99828 2.28819,-31.99828 z"
       id="path191"
       sodipodi:nodetypes="cssccssssc" />
    <path
       style="fill:none;stroke:#000000;stroke-width:0.264583px;stroke-linecap:butt;stroke-linejoin:miter;stroke-opacity:1"
       d="m 197.79225,137.82048 c 0,0 -5.70302,-7.59425 -12.88456,-7.21627 -7.18155,0.37797 -35.27292,0.37177 -40.52079,0.55353 -6.94114,0.2404 -8.51003,6.47145 -8.88801,8.73931 -0.37797,2.26785 -2.45127,24.90057 -2.0733,27.92438 0.37798,3.02381 -0.38977,16.62984 -1.13393,24.56845 -0.74405,7.9375 -1.91776,29.60071 5.06239,32.62452 3.92394,1.69986 16.31438,1.89075 26.2068,1.94687 11.431,0.0648 22.39557,1.66847 27.33612,-0.66424 3.69706,-1.74559 9.43041,-2.15715 9.80838,-15.00834 0.37798,-12.85119 0.37798,-7.9375 -0.37797,-27.97024 -0.75596,-20.03274 -2.53513,-45.49797 -2.53513,-45.49797 z"
       id="path193"
       sodipodi:nodetypes="cssssssssssc" />
    <text
       xml:space="preserve"
       style="font-style:normal;font-weight:normal;font-size:5.64444px;line-height:1.25;font-family:sans-serif;letter-spacing:0px;word-spacing:0px;fill:#ff0000;fill-opacity:1;stroke:none;stroke-width:0.264583"
       x="29.19866"
       y="126.33855"
       id="text197"><tspan
         sodipodi:role="line"
         id="tspan195"
         x="29.19866"
         y="126.33855"
         style="font-size:5.64444px;fill:#ff0000;stroke-width:0.264583">Pr-projeto</tspan></text>
    <text
       xml:space="preserve"
       style="font-style:normal;font-weight:normal;font-size:5.64444px;line-height:1.25;font-family:sans-serif;letter-spacing:0px;word-spacing:0px;fill:#ff0000;fill-opacity:1;stroke:none;stroke-width:0.264583"
       x="94.786392"
       y="118.17545"
       id="text197-8"><tspan
         sodipodi:role="line"
         id="tspan195-6"
         x="94.786392"
         y="118.17545"
         style="font-size:5.64444px;fill:#ff0000;stroke-width:0.264583">Projeto</tspan></text>
    <text
       xml:space="preserve"
       style="font-style:normal;font-weight:normal;font-size:5.64444px;line-height:1.25;font-family:sans-serif;letter-spacing:0px;word-spacing:0px;fill:#ff0000;fill-opacity:1;stroke:none;stroke-width:0.264583"
       x="156.38116"
       y="124.32346"
       id="text197-88"><tspan
         sodipodi:role="line"
         id="tspan195-8"
         x="156.38116"
         y="124.32346"
         style="font-size:5.64444px;fill:#ff0000;stroke-width:0.264583">Ps-projeto</tspan></text>
  </g>
</svg>
