<?xml version="1.0" encoding="UTF-8" standalone="no"?>
<svg
   xmlns:dc="http://purl.org/dc/elements/1.1/"
   xmlns:cc="http://creativecommons.org/ns#"
   xmlns:rdf="http://www.w3.org/1999/02/22-rdf-syntax-ns#"
   xmlns:svg="http://www.w3.org/2000/svg"
   xmlns="http://www.w3.org/2000/svg"
   xmlns:sodipodi="http://sodipodi.sourceforge.net/DTD/sodipodi-0.dtd"
   xmlns:inkscape="http://www.inkscape.org/namespaces/inkscape"
   width="210mm"
   height="297mm"
   viewBox="0 0 210 297"
   version="1.1"
   id="svg8"
   inkscape:version="1.0.2 (e86c870879, 2021-01-15)"
   sodipodi:docname="ecossistema.svg">
  <defs
     id="defs2" />
  <sodipodi:namedview
     id="base"
     pagecolor="#ffffff"
     bordercolor="#666666"
     borderopacity="1.0"
     inkscape:pageopacity="0.0"
     inkscape:pageshadow="2"
     inkscape:zoom="1.4"
     inkscape:cx="320.61356"
     inkscape:cy="232.63121"
     inkscape:document-units="mm"
     inkscape:current-layer="layer1"
     inkscape:document-rotation="0"
     showgrid="false"
     inkscape:window-width="1366"
     inkscape:window-height="705"
     inkscape:window-x="-8"
     inkscape:window-y="-8"
     inkscape:window-maximized="1" />
  <metadata
     id="metadata5">
    <rdf:RDF>
      <cc:Work
         rdf:about="">
        <dc:format>image/svg+xml</dc:format>
        <dc:type
           rdf:resource="http://purl.org/dc/dcmitype/StillImage" />
        <dc:title />
      </cc:Work>
    </rdf:RDF>
  </metadata>
  <g
     inkscape:label="Layer 1"
     inkscape:groupmode="layer"
     id="layer1">
    <path
       style="fill:#333333;stroke-width:0.0182931"
       d="m 19.189563,73.491857 c -0.03061,-0.07801 -0.177015,-0.454591 -0.325336,-0.836917 -0.14832,-0.382326 -0.27244,-0.698393 -0.275821,-0.702383 -0.0033,-0.0041 -0.160666,-0.06282 -0.349522,-0.130751 l -0.343377,-0.123572 -0.07318,0.04115 c -0.04025,0.02264 -0.392545,0.224223 -0.782887,0.447964 -0.390344,0.22374 -0.71962,0.402967 -0.731727,0.3983 -0.03189,-0.01243 -0.762887,-0.673195 -0.762887,-0.689694 0,-0.0083 0.03228,-0.08698 0.07174,-0.176259 0.530291,-1.200259 0.641695,-1.456818 0.641695,-1.477763 0,-0.01381 -0.06941,-0.169272 -0.15423,-0.346124 l -0.154228,-0.321535 -0.0973,-0.02775 c -0.05352,-0.01533 -0.38626,-0.105761 -0.73943,-0.201304 -0.785314,-0.212267 -0.90763,-0.24608 -0.913273,-0.252501 -0.01298,-0.01477 -0.06181,-1.028984 -0.05005,-1.038801 0.0077,-0.0069 0.180641,-0.07608 0.384381,-0.154802 0.203741,-0.0787 0.370437,-0.146022 0.370437,-0.149556 0,-0.0041 -0.35809,-0.0069 -0.795754,-0.0069 h -0.795752 v 2.378123 2.378109 h -1.353696 -1.353694 v -6.074525 -6.074539 l 3.708942,0.0055 3.70894,0.0055 0.0047,1.742427 0.0047,1.742413 h -2.359955 -2.359912 v 1.015274 1.015275 h 0.960737 0.960739 l -0.005,0.876018 -0.005,0.876004 0.09147,-0.03534 c 0.0503,-0.01947 0.187335,-0.07318 0.304507,-0.119292 l 0.213042,-0.08395 0.120893,-0.340546 c 0.06649,-0.187304 0.120866,-0.345931 0.12081,-0.352503 -5.5e-5,-0.0069 -0.0728,-0.138276 -0.161666,-0.292692 -0.08886,-0.154402 -0.290999,-0.505511 -0.449187,-0.78024 l -0.287615,-0.499505 0.05912,-0.06752 c 0.03252,-0.03714 0.189885,-0.212958 0.349709,-0.390638 l 0.29059,-0.323053 0.186371,0.08229 c 0.196226,0.08657 0.681219,0.299264 1.17757,0.516418 l 0.296056,0.129508 0.335358,-0.161264 0.335357,-0.161264 0.125559,-0.465153 c 0.292056,-1.081976 0.345346,-1.270619 0.361906,-1.281029 0.0097,-0.0055 0.07657,-0.01243 0.14885,-0.01464 0.07228,-0.0014 0.250765,-0.01105 0.396652,-0.02057 0.145889,-0.0097 0.31536,-0.01726 0.376602,-0.0174 l 0.111353,-2.48e-4 0.07481,0.196651 c 0.04115,0.108108 0.174875,0.451844 0.297179,0.763741 0.122301,0.311911 0.236099,0.603208 0.252877,0.647349 l 0.03051,0.08022 0.329278,0.115425 c 0.181102,0.06351 0.34225,0.11584 0.358106,0.116392 0.02059,6.08e-4 1.340829,-0.743417 1.567859,-0.883736 0.01022,-0.0069 0.192661,0.145579 0.405344,0.337592 0.29495,0.266279 0.384237,0.356838 0.376354,0.381677 -0.0057,0.01795 -0.166538,0.388566 -0.35745,0.823662 -0.19091,0.43511 -0.347111,0.801503 -0.347111,0.814205 0,0.01243 0.06941,0.167795 0.154228,0.344647 l 0.154231,0.321534 0.0973,0.02748 c 0.05352,0.01505 0.303098,0.08229 0.554631,0.149432 0.25153,0.0671 0.601389,0.160463 0.777458,0.207517 l 0.32013,0.0856 0.01118,0.127161 c 0.0062,0.07 0.01666,0.258879 0.02333,0.419867 0.0066,0.160974 0.017,0.339028 0.02295,0.395649 l 0.01077,0.103 -0.354254,0.138731 c -0.194841,0.07635 -0.576517,0.224679 -0.84817,0.329722 l -0.493916,0.191004 -0.124261,0.352641 -0.124262,0.352669 0.450083,0.784645 c 0.389894,0.679712 0.446909,0.788745 0.426353,0.815309 -0.01312,0.01684 -0.167492,0.191184 -0.343198,0.387379 -0.175711,0.196196 -0.320864,0.359062 -0.322561,0.361947 -0.0017,0.0028 -0.378464,-0.160504 -0.837249,-0.363024 L 21.436239,71.507452 21.1201,71.65803 c -0.173877,0.08284 -0.325979,0.159746 -0.338006,0.170943 -0.01201,0.01104 -0.117441,0.378446 -0.234257,0.81611 -0.11682,0.437664 -0.22137,0.8263 -0.232343,0.863634 -0.01809,0.06158 -0.02698,0.06876 -0.09502,0.0769 -0.102406,0.01243 -0.746343,0.04722 -0.872974,0.04722 h -0.102433 z m 0.763927,-3.352446 c 0.5034,-0.133926 0.906477,-0.432707 1.164986,-0.86355 0.709067,-1.181772 -0.0181,-2.696689 -1.379464,-2.873831 -0.379202,-0.04943 -0.744614,0.0055 -1.075265,0.160864 -0.198345,0.09333 -0.435751,0.263683 -0.555464,0.398645 -0.0466,0.0526 -0.103399,0.116116 -0.126236,0.141341 -0.0856,0.09444 -0.242396,0.384701 -0.302399,0.559689 -0.248727,0.725399 -0.03428,1.543456 0.539322,2.057348 0.46753,0.418859 1.132459,0.579668 1.734516,0.419494 z"
       id="path647-1-4" />
    <path
       style="fill:#333333;stroke-width:0.0676833"
       d="M 53.047131,43.534633 C 51.938384,43.376378 50.856865,42.859615 50.069914,42.112097 49.203796,41.289373 48.711885,40.34178 48.62497,39.32866 l -0.04501,-0.524012 -1.455189,1.194501 c -0.800356,0.656972 -1.577034,1.249977 -1.725927,1.317797 -0.715238,0.325773 -1.410082,-0.02748 -1.410082,-0.716811 0,-0.601897 0.111559,-0.706857 3.061052,-2.879492 1.490824,-1.098157 2.711475,-2.024308 2.712594,-2.058107 0.0014,-0.03604 -0.549389,-0.04501 -1.334738,-0.0214 -0.735216,0.02195 -1.469782,0.01505 -1.6324,-0.0156 -0.839374,-0.157606 -1.011712,-1.199983 -0.265727,-1.607272 0.20292,-0.110731 0.507886,-0.124814 3.393618,-0.155576 l 3.170651,-0.03383 -0.920407,-0.733407 c -0.506229,-0.403381 -0.965998,-0.798492 -1.021709,-0.878034 -0.170142,-0.242904 -0.12578,-0.485104 0.130061,-0.709756 0.336156,-0.295149 0.706649,-0.340988 1.109354,-0.13724 0.431658,0.21837 4.960162,3.711314 5.439592,4.195673 1.191215,1.203503 1.606277,3.048391 1.047375,4.655497 -0.242338,0.69686 -0.545965,1.170877 -1.127082,1.759602 -0.836282,0.847273 -1.828955,1.346805 -3.038712,1.529166 -0.711579,0.10728 -1.049546,0.11225 -1.665277,0.0243 z m 1.556713,-2.396707 c 2.461061,-0.519014 3.374979,-3.217774 1.633325,-4.823181 -1.317313,-1.214259 -3.447177,-1.195937 -4.704389,0.04045 -1.173377,1.15395 -1.159446,2.819073 0.033,3.934488 0.471104,0.440702 0.990933,0.715293 1.60828,0.849564 0.548284,0.119292 0.859425,0.119016 1.429842,-0.0014 z m -1.42911,-1.428555 c -0.663116,-0.235159 -1.110196,-0.866906 -1.107532,-1.564968 0.0014,-0.491386 0.164481,-0.856012 0.527892,-1.183662 1.094857,-0.987136 2.841125,-0.468509 3.139947,0.932529 0.150191,0.704206 -0.383389,1.558768 -1.132702,1.814071 -0.396823,0.135169 -1.049462,0.136136 -1.427605,0.0014 z"
       id="path727-5" />
    <path
       style="fill:#333333;stroke-width:0.0612462;fill-opacity:1"
       d="m 13.554139,105.39108 c -0.423001,-0.27437 -3.52557,-3.42592 -3.6378058,-3.69525 -0.127438,-0.30578 -0.119844,-0.70827 0.01864,-0.9799 0.1306128,-0.25594 1.8621188,-2.083032 2.6572288,-2.803723 0.622303,-0.564066 0.864144,-0.663917 1.334599,-0.55106 0.174036,0.04184 0.39761,0.159538 0.549306,0.289392 l 0.255856,0.218991 -1.643349,1.644177 -1.643321,1.644163 1.377566,1.38088 1.377594,1.38088 0.406737,-0.42412 0.406736,-0.42414 0.541368,0.54389 0.541367,0.54388 -0.609601,0.61192 c -0.335286,0.33654 -0.697191,0.65347 -0.80425,0.70427 -0.329929,0.15656 -0.813114,0.12054 -1.128767,-0.0842 z m 4.137477,-0.12467 c -0.300065,-0.14069 -3.179543,-3.01708 -3.273775,-3.27035 -0.09278,-0.24952 -0.0787,-0.68464 0.03079,-0.94646 0.103551,-0.24803 0.317392,-0.50415 0.42075,-0.50415 0.03604,0 0.796215,0.73037 1.689395,1.62308 l 1.623909,1.62307 1.376489,-1.37752 1.376527,-1.37753 -0.42661,-0.42988 -0.426567,-0.42989 0.499437,-0.499448 0.49946,-0.499463 0.53547,0.484731 c 0.69222,0.62667 0.88276,0.92026 0.88276,1.36024 0,0.182 -0.0421,0.41955 -0.0935,0.52788 -0.0515,0.10838 -0.88512,0.98476 -1.85272,1.94765 -1.46263,1.45555 -1.800553,1.76202 -2.004245,1.8178 -0.347961,0.0953 -0.576299,0.082 -0.857462,-0.0497 z m 3.705445,-0.17074 c -0.17003,-0.0623 -0.36751,-0.2833 -0.3674,-0.41144 6e-5,-0.0961 0.0262,-0.0748 0.10714,0.0857 0.146,0.29037 0.44102,0.37927 0.67663,0.20387 0.34872,-0.2596 0.31415,-0.68128 -0.0711,-0.86643 -0.23307,-0.11198 -0.51464,0.007 -0.62596,0.26099 -0.0453,0.10369 -0.0831,0.14646 -0.0845,0.095 -10e-4,-0.0515 0.0418,-0.15656 0.0958,-0.23355 0.33992,-0.48529 1.08711,-0.13323 0.97585,0.45994 -0.0574,0.30556 -0.41637,0.51176 -0.70641,0.40574 z m -0.0529,-0.52328 -0.01,-0.29091 h 0.21437 c 0.18357,0 0.21335,0.0198 0.20725,0.13766 -0.007,0.10369 -0.0141,0.11128 -0.0351,0.0308 -0.017,-0.0649 -0.0866,-0.10715 -0.17665,-0.10715 -0.1853,0 -0.20064,0.16744 -0.0178,0.19479 0.0719,0.011 0.17151,0.0885 0.22126,0.17268 l 0.0906,0.15318 -0.12399,-0.13779 c -0.0682,-0.0758 -0.1658,-0.1378 -0.21703,-0.1378 -0.0511,0 -0.10507,0.0619 -0.11956,0.1378 -0.0141,0.0758 -0.0302,0.007 -0.0349,-0.15316 z m -5.030629,-3.07769 -1.193203,-1.19435 0.504572,-0.504555 0.504558,-0.504572 0.828564,0.826177 c 0.460873,0.45952 0.882231,0.93664 0.949526,1.07517 0.145207,0.29893 0.155341,0.6832 0.02623,0.99235 -0.09002,0.21547 -0.313982,0.50416 -0.391121,0.50416 -0.01961,0 -0.572778,-0.53747 -1.229046,-1.19438 z m -3.337893,-0.54505 c -0.101066,-0.0445 -0.26095,-0.1589 -0.355348,-0.25414 l -0.171633,-0.17314 1.212299,-1.213474 1.212325,-1.213431 0.520464,0.520436 0.52045,0.520478 -0.826175,0.831394 c -0.454412,0.457237 -0.928443,0.884537 -1.053423,0.949517 -0.265934,0.13819 -0.782863,0.15411 -1.058959,0.0323 z m 5.022248,-0.1842 c -0.101066,-0.0447 -0.263711,-0.15649 -0.361422,-0.24823 l -0.177681,-0.1668 1.647132,-1.647963 1.647115,-1.647961 -1.376597,-1.377621 -1.376614,-1.377636 -0.431105,0.428234 -0.431078,0.428206 -0.515231,-0.517895 -0.515204,-0.51791 0.492036,-0.538551 c 0.270587,-0.296185 0.605459,-0.618893 0.744121,-0.717073 0.318718,-0.22566 0.78978,-0.279865 1.144479,-0.13158 0.300672,0.125643 3.620773,3.481872 3.780393,3.821548 0.13461,0.286465 0.13461,0.65203 0,0.942167 -0.13683,0.294708 -2.977386,3.162245 -3.242201,3.272895 -0.249918,0.10438 -0.788511,0.10244 -1.028143,-0.003 z m -1.184532,-1.220733 -0.501397,-0.50402 0.814495,-0.8065 c 1.100449,-1.089694 1.441354,-1.234376 2.116027,-0.898179 0.58149,0.289779 0.588752,0.271706 -0.579681,1.445552 -0.567836,0.570458 -1.103418,1.088934 -1.190235,1.152169 l -0.157813,0.115011 z m -6.314047,-1.022606 c -0.342714,-0.311648 -0.6767708,-0.6718 -0.7423538,-0.800356 -0.1421,-0.278637 -0.154416,-0.709577 -0.02886,-1.010276 0.127437,-0.305132 3.4785158,-3.662272 3.7813968,-3.788315 0.285982,-0.119015 0.722486,-0.121639 0.999189,-0.0069 0.241635,0.101067 3.058029,2.929169 3.226238,3.239768 0.227965,0.420916 0.0961,1.090729 -0.28456,1.446118 l -0.16125,0.150509 -1.636639,-1.635769 -1.636638,-1.635797 -1.377595,1.382675 -1.37758,1.382662 0.444181,0.41005 0.444181,0.410036 -0.51334,0.510661 -0.513325,0.510675 z m 4.639605,-0.471987 c -0.906214,-0.918875 -1.028847,-1.102217 -1.029855,-1.539839 -7.04e-4,-0.264719 0.139436,-0.619266 0.331365,-0.838408 l 0.188892,-0.21576 1.224407,1.227941 1.224448,1.227942 -0.522493,0.522479 -0.522493,0.522466 z"
       id="path303-2" />
    <path
       style="fill:#333333;stroke-width:0.0642445"
       d="m 87.770032,106.79335 c -0.15667,-0.0682 -0.22151,-0.15023 -0.27473,-0.3479 -0.0842,-0.31287 -0.32141,-0.60878 -0.56288,-0.70233 -0.0979,-0.038 -0.34245,-0.1012 -0.54348,-0.14055 -0.42987,-0.0842 -0.69454,-0.26818 -0.69454,-0.48267 0,-0.0909 0.12951,-0.3001 0.32123,-0.51929 0.17667,-0.20188 0.32123,-0.41833 0.32123,-0.48097 0,-0.26734 -0.4555,-0.50374 -1.89523,-0.98355 -1.74791,-0.58251 -1.87294,-0.75434 -0.90312,-1.24096 0.57149,-0.28675 0.80676,-0.45233 0.80676,-0.56779 0,-0.14257 -0.44189,-0.333 -1.43118,-0.61676 -1.07804,-0.30921 -1.40425,-0.45199 -1.62084,-0.70936 -0.39798,-0.473 -0.31498,-0.582474 3.05133,-4.024099 3.31409,-3.388261 3.2426,-3.33041 4.04568,-3.272766 0.7551,0.05426 0.47233,-0.199427 5.54595,4.974987 1.67715,1.710451 1.84387,1.986174 1.52118,2.515488 -0.28996,0.47559 -0.83141,0.77559 -2.40698,1.3336 -1.58868,0.56265 -1.93781,0.74052 -1.85861,0.94689 0.024,0.0626 0.26547,0.24158 0.53665,0.39801 0.6344,0.36591 0.80613,0.54423 0.74783,0.77653 -0.0831,0.33127 -0.41127,0.57321 -1.03321,0.76184 -0.31734,0.0962 -0.74424,0.26361 -0.94865,0.37191 -0.39969,0.21177 -0.76815,0.57532 -0.71733,0.70775 0.0173,0.0449 0.16086,0.15979 0.31923,0.25545 0.33273,0.20097 0.35808,0.31159 0.11128,0.48569 -0.75873,0.53521 -1.89524,0.7967 -2.43756,0.56085 z m 0.70071,-9.949613 c 0.85409,-0.550245 0.76368,-0.530833 1.23747,-0.265865 l 0.41449,0.231803 0.033,-0.14881 c 0.0182,-0.08187 0.0699,-0.361284 0.11474,-0.621005 l 0.0816,-0.472195 0.51396,0.42122 c 0.46948,0.384783 0.51895,0.410423 0.57164,0.29624 0.0341,-0.07373 0.0341,-0.20263 0,-0.314769 -0.0838,-0.275861 -2.23511,-2.49827 -2.5621,-2.646818 -0.33991,-0.154403 -0.81073,-0.152746 -1.1119,0.0041 -0.13116,0.06821 -0.7463,0.639175 -1.3671,1.268823 -1.61912,1.642217 -1.85864,1.918368 -1.85864,2.143061 0,0.24793 0.0783,0.263546 1.20729,0.240861 l 0.91817,-0.0185 0.36572,-0.796132 0.3657,-0.796118 0.22364,0.908547 c 0.12302,0.499712 0.24531,0.908548 0.2718,0.908548 0.0265,0 0.2877,-0.154306 0.58043,-0.342908 z m -4.20937,8.243303 c -0.34219,-0.26916 -0.28154,-0.5457 0.16734,-0.763 0.36062,-0.17458 0.87287,-0.18121 1.0794,-0.0139 l 0.14917,0.12081 -0.15549,0.22693 c -0.20191,0.29465 -0.61442,0.55942 -0.87161,0.55942 -0.11184,0 -0.2778,-0.0585 -0.36881,-0.1302 z m 8.71096,-0.0947 c -0.2567,-0.10962 -0.33366,-0.35101 -0.1845,-0.57864 0.12674,-0.19342 0.25872,-0.20118 0.53692,-0.0316 0.27068,0.16503 0.39628,0.41918 0.26707,0.54039 -0.14611,0.1371 -0.39616,0.16522 -0.61949,0.0699 z m 0.50846,-1.18763 c -0.28682,-0.0679 -0.31428,-0.1088 -0.20383,-0.30342 0.16334,-0.28778 0.41447,-0.42563 0.83027,-0.4557 0.47671,-0.0345 0.64113,0.005 0.85945,0.20756 0.22688,0.21028 0.2301,0.46742 0.007,0.55229 -0.19196,0.0729 -1.18361,0.0725 -1.49277,-6.7e-4 z"
       id="path253" />
    <path
       style="fill:#333333;stroke-width:0.0222394;fill-opacity:1"
       d="m 62.264862,107.10083 c -0.60389,-0.17942 -1.09288,-0.39247 -1.45679,-0.63473 -0.47851,-0.31855 -0.69291,-0.67986 -0.73072,-1.23131 l -0.0142,-0.20727 -0.42256,-0.10797 c -0.68502,-0.17496 -1.41491,-0.44016 -2.17103,-0.7888 -0.3105,-0.14315 -0.35183,-0.15686 -0.38919,-0.12909 -0.0955,0.071 -0.49352,0.28354 -0.70467,0.37637 -1.56021,0.68593 -3.41938,0.65867 -5.58444,-0.0819 -1.07602,-0.36806 -2.02112,-0.85798 -2.87028,-1.48789 l -0.20277,-0.15041 -0.19121,-0.0156 c -0.80398,-0.0652 -1.60381,-0.59493 -2.13614,-1.41467 -0.34102,-0.52514 -0.50621,-1.0501 -0.50621,-1.608845 0,-0.570997 0.15087,-0.969836 0.49845,-1.31781 0.28853,-0.288868 0.60863,-0.423913 1.05833,-0.446487 0.40091,-0.02016 0.85012,0.102033 1.23568,0.336128 0.0929,0.05633 0.17873,0.104794 0.19074,0.107556 0.0124,0.0028 0.0446,-0.06503 0.0724,-0.150702 0.0526,-0.161982 0.14493,-0.357847 0.2165,-0.459341 0.0399,-0.05647 0.0417,-0.135583 0.0417,-1.840331 0,-0.979694 0.007,-1.781045 0.0167,-1.780755 0.01,2.49e-4 0.1649,0.224113 0.34606,0.497379 0.39738,0.599384 0.54522,0.787433 0.89379,1.136788 0.64904,0.650525 1.32793,1.058932 1.9619,1.180225 0.23381,0.04473 0.25115,0.04211 0.3836,-0.05661 0.14378,-0.107279 0.45295,-0.267757 0.6346,-0.329377 0.25529,-0.08671 0.4774,-0.121086 0.77838,-0.12081 0.40157,3.45e-4 0.66748,0.06006 1.03003,0.231459 l 0.18495,0.0874 0.23761,-0.05909 c 1.62012,-0.403313 3.01708,-1.364547 3.65098,-2.51216 0.0474,-0.0856 0.13269,-0.270767 0.18969,-0.411431 0.24353,-0.600488 0.41986,-0.880864 0.61736,-0.981613 0.0717,-0.03659 0.12081,-0.04418 0.23914,-0.03755 0.18052,0.01105 0.30335,0.08132 0.39769,0.229981 0.0929,0.146546 0.18441,0.653107 0.25096,1.389689 0.0392,0.433218 0.0398,2.544523 10e-4,3.035703 -0.19285,2.439535 -0.61064,3.997874 -1.37949,5.145514 -0.10148,0.15142 -0.18149,0.27793 -0.17791,0.28115 0.003,0.003 0.14163,0.0733 0.30676,0.15577 0.57726,0.28823 1.17708,0.64285 1.58645,0.93793 0.16187,0.11667 0.20866,0.14061 0.23621,0.12081 0.25678,-0.18394 0.64754,-0.25217 0.96724,-0.16892 0.29484,0.0768 0.62098,0.31109 0.76172,0.54721 0.12937,0.21695 0.22359,0.63169 0.28632,1.25976 0.0391,0.39204 0.0699,1.58473 0.0407,1.58215 -0.0111,-0.001 -0.18025,-0.0493 -0.37596,-0.10755 z m -0.37955,-1.10834 c -0.0405,-0.5788 -0.10701,-0.99214 -0.19172,-1.18902 -0.10715,-0.24886 -0.3824,-0.37178 -0.59164,-0.26416 -0.18416,0.0947 -0.27469,0.25091 -0.28941,0.4993 -0.0124,0.21321 0.0242,0.39627 0.10328,0.51306 0.10962,0.16201 0.51539,0.44744 0.81451,0.573 0.16303,0.0685 0.16865,0.0637 0.15498,-0.13213 z m -7.54885,-1.87396 c 0.71158,-0.0532 1.29381,-0.20167 1.8778,-0.47922 0.16372,-0.0779 0.17336,-0.0862 0.13351,-0.11487 -0.0237,-0.017 -0.21317,-0.14183 -0.42111,-0.27728 l -0.37808,-0.24631 -0.44478,0.004 c -0.67336,0.006 -1.24064,-0.0736 -2.14612,-0.29949 -0.40591,-0.10121 -1.32741,-0.3733 -1.35382,-0.39967 -0.004,-0.004 0.36571,-0.003 0.82286,0.005 1.60342,0.0255 2.69633,-0.0794 3.19796,-0.30683 0.2207,-0.1001 0.3131,-0.20621 0.3131,-0.35966 0,-0.13751 -0.0875,-0.42015 -0.18938,-0.61171 -0.0554,-0.10397 -0.0965,-0.19306 -0.0917,-0.19798 0.017,-0.017 0.38978,0.21608 0.55285,0.34567 0.30726,0.24416 0.48425,0.51113 0.50206,0.75729 l 0.01,0.12592 0.21452,0.0757 c 0.11805,0.0416 0.34462,0.12786 0.50363,0.19186 l 0.28911,0.11626 0.0631,-0.0591 c 0.0347,-0.0324 0.1331,-0.16337 0.21855,-0.29079 0.87293,-1.30204 1.34957,-3.718119 1.30125,-6.595857 -0.0138,-0.783015 -0.0463,-1.398028 -0.0809,-1.501166 -0.0185,-0.05536 -0.0188,-0.05523 -0.0471,0.02223 -0.0583,0.159967 -0.28908,0.596153 -0.41773,0.789491 -0.61612,0.92604 -1.61621,1.702552 -2.82763,2.195527 -0.0917,0.03728 -0.3119,0.115977 -0.48926,0.174905 -0.17737,0.05882 -0.32233,0.115011 -0.32213,0.124814 1.6e-4,0.0097 0.0496,0.09237 0.10949,0.183411 0.12702,0.192592 0.23825,0.445437 0.3079,0.699801 0.0422,0.154664 0.0493,0.23589 0.0493,0.580164 0,0.349411 -0.007,0.424286 -0.0515,0.588863 -0.0743,0.271885 -0.16426,0.47475 -0.31129,0.701787 -0.67523,1.04259 -1.97782,1.40411 -3.08433,0.85603 -0.27151,-0.13448 -0.46018,-0.27498 -0.68431,-0.50957 l -0.17054,-0.1785 -0.11736,0.10093 c -0.43065,0.36991 -1.06921,0.543 -1.62975,0.44172 -0.0979,-0.0177 -0.19042,-0.0324 -0.2057,-0.0326 -0.0202,-3.3e-4 -0.0279,0.0544 -0.0279,0.20066 0,0.51433 -0.19398,0.98092 -0.54165,1.3028 l -0.15726,0.1456 0.0548,0.0414 c 0.12536,0.0947 0.73753,0.45909 1.00852,0.6004 0.80719,0.42092 2.03164,0.83047 2.94928,0.98649 0.64234,0.10921 1.18575,0.1417 1.71244,0.10244 z m -6.30491,-2.26946 c 0.0979,-0.0369 0.16949,-0.0864 0.26882,-0.18578 0.14442,-0.14442 0.21275,-0.28329 0.25812,-0.52458 0.0319,-0.16925 0.008,-0.53201 -0.0486,-0.74502 -0.0602,-0.22591 -0.22997,-0.583685 -0.38237,-0.805783 -0.23741,-0.346055 -0.66135,-0.708527 -1.00777,-0.861714 -0.15529,-0.06862 -0.45491,-0.144903 -0.56711,-0.144309 -0.0761,4.28e-4 -0.0748,0.0028 0.0581,0.06641 0.14634,0.07097 0.29007,0.209754 0.36076,0.348333 0.091,0.178261 0.12095,0.334748 0.11018,0.575457 -0.01,0.202836 -0.0185,0.24445 -0.0896,0.394227 -0.0949,0.199789 -0.22188,0.333819 -0.38866,0.410179 -0.16366,0.075 -0.39498,0.0654 -0.54461,-0.0222 -0.19278,-0.11295 -0.35476,-0.34211 -0.41817,-0.591532 -0.0162,-0.06324 -0.0177,-0.04943 -0.007,0.06379 0.0422,0.474752 0.32917,1.034772 0.7408,1.446392 0.53776,0.53776 1.17394,0.75887 1.65766,0.57611 z m 5.42442,-1.44097 c 0.007,-0.011 -0.0262,-0.0302 -0.0726,-0.0442 -0.22077,-0.0661 -0.49638,-0.31274 -0.61088,-0.546582 -0.0638,-0.130337 -0.12537,-0.371446 -0.12537,-0.49111 0,-0.119706 0.0616,-0.360801 0.12564,-0.491773 0.0624,-0.127714 0.24321,-0.346415 0.32053,-0.387794 0.0358,-0.01919 0.0341,-0.0069 -0.0138,0.09527 -0.096,0.206122 -0.0649,0.415904 0.0871,0.588614 0.11598,0.131856 0.23074,0.18341 0.4091,0.184032 0.16272,5.66e-4 0.25394,-0.03245 0.36917,-0.133651 0.12951,-0.11363 0.17923,-0.22773 0.17923,-0.410754 0,-0.232011 -0.10121,-0.394573 -0.31087,-0.499146 l -0.0881,-0.04404 0.11446,-0.0011 c 0.39584,-0.0028 0.80719,0.301859 0.95881,0.710778 l 0.0454,0.122328 0.0164,-0.08643 c 0.0331,-0.174422 -0.003,-0.525102 -0.0735,-0.732247 -0.0949,-0.275171 -0.18808,-0.42053 -0.41661,-0.649655 -0.22929,-0.22987 -0.45113,-0.357376 -0.75415,-0.433466 -0.21295,-0.05357 -0.5536,-0.05813 -0.7804,-0.01105 -0.20379,0.04253 -0.51953,0.200476 -0.70055,0.350474 -0.4242,0.351523 -0.64993,0.92165 -0.58018,1.465475 0.0957,0.745405 0.61253,1.292677 1.36968,1.450067 0.086,0.0179 0.52015,0.0142 0.53172,-0.004 z m -3.45622,-0.35913 c 0.0293,-0.0188 0.029,-0.0215 -0.003,-0.022 -0.0808,-5.6e-4 -0.30953,-0.140785 -0.41875,-0.256279 -0.33896,-0.358385 -0.34308,-0.884441 -0.01,-1.255072 0.11129,-0.123848 0.15985,-0.146146 0.11142,-0.05136 -0.15481,0.302951 0.0693,0.67176 0.40818,0.67176 0.19231,0 0.38464,-0.139256 0.44503,-0.322225 0.063,-0.190604 -0.0402,-0.441613 -0.22057,-0.536852 l -0.098,-0.05178 h 0.10272 c 0.11694,0 0.30766,0.06503 0.42597,0.145372 0.0554,0.03755 0.0827,0.04598 0.0881,0.02692 0.004,-0.01519 0.0257,-0.109765 0.0471,-0.210113 l 0.0392,-0.182472 -0.0617,-0.08077 c -0.0783,-0.102585 -0.30019,-0.267867 -0.44944,-0.334665 -0.58556,-0.262054 -1.3035,-0.04529 -1.62907,0.491925 -0.13933,0.229885 -0.18677,0.39467 -0.18882,0.655965 l -0.003,0.233985 0.11639,0.155203 c 0.0641,0.08533 0.17764,0.273693 0.25255,0.4185 0.14935,0.288687 0.20604,0.342576 0.46057,0.437815 0.20277,0.0758 0.51318,0.111143 0.58273,0.06614 z m -0.61722,-3.252121 0.10562,-0.0283 -0.26681,-0.261875 -0.2668,-0.261861 v 0.353787 0.353801 l 0.16124,-0.06365 c 0.0886,-0.03507 0.20874,-0.07635 0.2668,-0.09195 z"
       id="path269" />
    <text
       xml:space="preserve"
       style="font-style:normal;font-weight:normal;font-size:4.23333px;line-height:1.25;font-family:sans-serif;letter-spacing:0px;word-spacing:0px;fill:#808080;fill-opacity:1;stroke:none;stroke-width:0.365306"
       x="8.0172424"
       y="55.67844"
       id="text28-4-2-2-5-21-1-6-9"><tspan
         sodipodi:role="line"
         id="tspan26-5-2-27-3-3-1-1-0"
         x="8.0172424"
         y="55.67844"
         style="font-style:normal;font-variant:normal;font-weight:normal;font-stretch:normal;font-size:4.23333px;font-family:'Source Sans Pro';-inkscape-font-specification:'Source Sans Pro';fill:#808080;stroke-width:0.365306">FreeCAD</tspan></text>
    <text
       xml:space="preserve"
       style="font-style:normal;font-weight:normal;font-size:4.23333px;line-height:1.25;font-family:sans-serif;letter-spacing:0px;word-spacing:0px;fill:#808080;fill-opacity:1;stroke:none;stroke-width:0.365306"
       x="44.798943"
       y="27.708204"
       id="text28-4-2-2-5-21-1-6-9-2"><tspan
         sodipodi:role="line"
         id="tspan26-5-2-27-3-3-1-1-0-33"
         x="44.798943"
         y="27.708204"
         style="font-style:normal;font-variant:normal;font-weight:normal;font-stretch:normal;font-size:4.23333px;font-family:'Source Sans Pro';-inkscape-font-specification:'Source Sans Pro';fill:#808080;stroke-width:0.365306">Blender</tspan></text>
    <text
       xml:space="preserve"
       style="font-style:normal;font-weight:normal;font-size:4.23333px;line-height:1.25;font-family:sans-serif;letter-spacing:0px;word-spacing:0px;fill:#808080;fill-opacity:1;stroke:none;stroke-width:0.365306"
       x="47.773979"
       y="88.018051"
       id="text28-4-2-2-5-21-1-6-9-23"><tspan
         sodipodi:role="line"
         id="tspan26-5-2-27-3-3-1-1-0-4"
         x="47.773979"
         y="88.018051"
         style="font-style:normal;font-variant:normal;font-weight:normal;font-stretch:normal;font-size:4.23333px;font-family:'Source Sans Pro';-inkscape-font-specification:'Source Sans Pro';fill:#808080;stroke-width:0.365306">Gimp</tspan></text>
    <text
       xml:space="preserve"
       style="font-style:normal;font-weight:normal;font-size:4.23333px;line-height:1.25;font-family:sans-serif;letter-spacing:0px;word-spacing:0px;fill:#808080;fill-opacity:1;stroke:none;stroke-width:0.365306"
       x="79.24749"
       y="88.018051"
       id="text28-4-2-2-5-21-1-6-9-7"><tspan
         sodipodi:role="line"
         id="tspan26-5-2-27-3-3-1-1-0-39"
         x="79.24749"
         y="88.018051"
         style="font-style:normal;font-variant:normal;font-weight:normal;font-stretch:normal;font-size:4.23333px;font-family:'Source Sans Pro';-inkscape-font-specification:'Source Sans Pro';fill:#808080;stroke-width:0.365306">Inkscape</tspan></text>
    <text
       xml:space="preserve"
       style="font-style:normal;font-weight:normal;font-size:4.23333px;line-height:1.25;font-family:sans-serif;letter-spacing:0px;word-spacing:0px;fill:#808080;fill-opacity:1;stroke:none;stroke-width:0.365306"
       x="8.1291056"
       y="90.095917"
       id="text28-4-2-2-5-21-1-6-9-5-2"><tspan
         sodipodi:role="line"
         id="tspan26-5-2-27-3-3-1-1-0-37-9"
         x="8.1291056"
         y="90.095917"
         style="font-style:normal;font-variant:normal;font-weight:normal;font-stretch:normal;font-size:4.23333px;font-family:'Source Sans Pro';-inkscape-font-specification:'Source Sans Pro';fill:#808080;stroke-width:0.365306">BIM | IFC</tspan></text>
    <path
       style="fill:#333333;fill-opacity:1;stroke-width:0.123645"
       d="m 144.78746,105.87883 c -0.14365,-0.0292 -0.40824,-0.20649 -0.58799,-0.39411 l -0.32682,-0.34112 0.0316,-11.053889 0.0316,-11.0539 0.42013,-0.28313 0.42013,-0.28311 h 8.5568 8.5568 l 0.42013,0.28312 0.42013,0.28312 0.0316,11.0685 0.0316,11.068519 -0.37965,0.36378 -0.37965,0.36379 -8.49258,0.0157 c -4.67091,0.009 -8.6101,-0.008 -8.75374,-0.0373 z m 16.39691,-8.478289 v -6.83064 l -3.61584,-3.61741 -3.61585,-3.61741 h -4.23565 -4.23564 v 10.44805 10.448059 h 7.85149 7.85149 z m -11.34989,3.400649 c 0.45606,-0.0237 1.23503,-0.0239 1.73104,-3.7e-4 0.49601,0.0235 0.12287,0.043 -0.8292,0.0431 -0.95207,2.5e-4 -1.3579,-0.0191 -0.90184,-0.0428 z m 4.5803,-4.7e-4 c 0.59504,-0.0227 1.56875,-0.0227 2.16379,0 0.59505,0.0227 0.10819,0.0412 -1.08189,0.0412 -1.19009,0 -1.67695,-0.0186 -1.0819,-0.0412 z m -5.55439,-0.958919 c 4.7e-4,-0.47604 0.0229,-0.65563 0.0497,-0.3991 0.0268,0.25654 0.0263,0.646029 -9.3e-4,0.865529 -0.0273,0.21949 -0.0492,0.01 -0.0487,-0.466429 z m 8.90248,0 c 4.7e-4,-0.47604 0.0229,-0.65563 0.0497,-0.3991 0.0268,0.25654 0.0263,0.646029 -9.3e-4,0.865529 -0.0273,0.21949 -0.0492,0.01 -0.0487,-0.466429 z m -7.92839,-1.63714 c 0.45606,-0.0237 1.23503,-0.0239 1.73104,-3.7e-4 0.49601,0.0235 0.12287,0.043 -0.8292,0.0431 -0.95207,2.4e-4 -1.3579,-0.0191 -0.90184,-0.0428 z m 4.5803,-4.7e-4 c 0.59504,-0.0227 1.56875,-0.0227 2.16379,0 0.59505,0.0227 0.10819,0.0412 -1.08189,0.0412 -1.19009,0 -1.67695,-0.0186 -1.0819,-0.0412 z m -5.55439,-0.95892 c 4.7e-4,-0.47604 0.0229,-0.65563 0.0497,-0.39909 0.0268,0.25653 0.0263,0.64602 -9.3e-4,0.86552 -0.0273,0.21949 -0.0492,0.01 -0.0487,-0.46643 z m 8.90248,0 c 4.7e-4,-0.47604 0.0229,-0.65563 0.0497,-0.39909 0.0268,0.25653 0.0263,0.64602 -9.3e-4,0.86552 -0.0273,0.21949 -0.0492,0.01 -0.0487,-0.46643 z m -8.90248,-2.59656 c 4.7e-4,-0.47604 0.0229,-0.65562 0.0497,-0.39909 0.0268,0.25653 0.0263,0.64602 -9.3e-4,0.86552 -0.0273,0.2195 -0.0492,0.01 -0.0487,-0.46643 z m 8.90248,0 c 4.7e-4,-0.47604 0.0229,-0.65562 0.0497,-0.39909 0.0268,0.25653 0.0263,0.64602 -9.3e-4,0.86552 -0.0273,0.2195 -0.0492,0.01 -0.0487,-0.46643 z m 3.4215,-8.90248 v -2.41109 h -2.50263 -2.50264 l 2.40872,2.41109 c 1.32479,1.3261 2.45097,2.41109 2.50263,2.41109 0.0517,0 0.0939,-1.08499 0.0939,-2.41109 z m -16.72512,-3.91018 c 0.0839,-0.0845 0.18364,-0.12249 0.22171,-0.0844 0.0381,0.0381 -0.0306,0.1072 -0.15249,0.15363 -0.17622,0.0671 -0.19042,0.0529 -0.0692,-0.0692 z m 17.59064,0.0153 c -0.11144,-0.072 -0.12669,-0.12061 -0.0382,-0.12175 0.081,-9.4e-4 0.18165,0.0537 0.22368,0.12175 0.0949,0.15351 0.0521,0.15351 -0.18547,0 z"
       id="path383" />
    <path
       style="fill:#333333;fill-opacity:1;stroke-width:0.123645"
       d="m 120.93139,111.20871 c -0.14364,-0.0292 -0.40823,-0.2065 -0.58798,-0.39411 l -0.32682,-0.34112 0.0316,-11.053899 0.0316,-11.0539 0.42014,-0.28312 0.42013,-0.28312 h 8.5568 8.55679 l 0.42014,0.28312 0.42013,0.28312 0.0315,11.06851 0.0316,11.068509 -0.37965,0.36379 -0.37965,0.36379 -8.49258,0.0157 c -4.67091,0.009 -8.61009,-0.008 -8.75373,-0.0373 z m 16.39692,-8.47829 v -6.830649 l -3.61585,-3.6174 -3.61585,-3.61741 h -4.23564 -4.23564 v 10.44805 10.448049 h 7.85148 7.8515 z m -11.34989,3.40065 c 0.45605,-0.0237 1.23502,-0.0239 1.73103,-3.7e-4 0.49601,0.0235 0.12288,0.0429 -0.82919,0.0431 -0.95207,2.5e-4 -1.3579,-0.0191 -0.90184,-0.0428 z m 4.58029,-4.7e-4 c 0.59504,-0.0227 1.56875,-0.0227 2.1638,0 0.59504,0.0227 0.10819,0.0412 -1.0819,0.0412 -1.19009,0 -1.67695,-0.0186 -1.0819,-0.0412 z m -5.55438,-0.95893 c 4.7e-4,-0.47603 0.0229,-0.65562 0.0497,-0.39909 0.0268,0.25654 0.0263,0.64602 -9.4e-4,0.86552 -0.0273,0.2195 -0.0492,0.01 -0.0487,-0.46643 z m 8.90247,0 c 4.7e-4,-0.47603 0.0229,-0.65562 0.0497,-0.39909 0.0268,0.25654 0.0263,0.64602 -9.4e-4,0.86552 -0.0273,0.2195 -0.0492,0.01 -0.0487,-0.46643 z m -7.92838,-1.63713 c 0.45605,-0.0237 1.23502,-0.0239 1.73103,-3.7e-4 0.49601,0.0235 0.12288,0.0429 -0.82919,0.0431 -0.95207,2.5e-4 -1.3579,-0.0191 -0.90184,-0.0428 z m 4.58029,-4.7e-4 c 0.59504,-0.0227 1.56875,-0.0227 2.1638,0 0.59504,0.0227 0.10819,0.0412 -1.0819,0.0412 -1.19009,0 -1.67695,-0.0186 -1.0819,-0.0412 z m -5.55438,-0.95893 c 4.7e-4,-0.47603 0.0229,-0.65562 0.0497,-0.39909 0.0268,0.25654 0.0263,0.64602 -9.4e-4,0.86552 -0.0273,0.2195 -0.0492,0.01 -0.0487,-0.46643 z m 8.90247,0 c 4.7e-4,-0.47603 0.0229,-0.65562 0.0497,-0.39909 0.0268,0.25654 0.0263,0.64602 -9.4e-4,0.86552 -0.0273,0.2195 -0.0492,0.01 -0.0487,-0.46643 z m -8.90247,-2.596549 c 4.7e-4,-0.47604 0.0229,-0.65563 0.0497,-0.3991 0.0268,0.25654 0.0263,0.646029 -9.4e-4,0.865529 -0.0273,0.21949 -0.0492,0.01 -0.0487,-0.466429 z m 8.90247,0 c 4.7e-4,-0.47604 0.0229,-0.65563 0.0497,-0.3991 0.0268,0.25654 0.0263,0.646029 -9.4e-4,0.865529 -0.0273,0.21949 -0.0492,0.01 -0.0487,-0.466429 z m 3.42151,-8.90248 v -2.4111 h -2.50264 -2.50263 l 2.40871,2.4111 c 1.32479,1.32609 2.45098,2.41108 2.50263,2.41108 0.0517,0 0.0939,-1.08499 0.0939,-2.41108 z m -16.72512,-3.91018 c 0.0839,-0.0845 0.18364,-0.12249 0.22171,-0.0844 0.0381,0.0381 -0.0306,0.10721 -0.1525,0.15364 -0.17621,0.0671 -0.19042,0.0529 -0.0692,-0.0692 z m 17.59063,0.0153 c -0.11143,-0.072 -0.12669,-0.12061 -0.0382,-0.12175 0.081,-9.3e-4 0.18164,0.0537 0.22368,0.12175 0.0949,0.15351 0.0521,0.15351 -0.18548,0 z"
       id="path383-2" />
    <text
       xml:space="preserve"
       style="font-style:normal;font-weight:normal;font-size:4.23333px;line-height:1.25;font-family:sans-serif;letter-spacing:0px;word-spacing:0px;fill:#808080;fill-opacity:1;stroke:none;stroke-width:0.365306"
       x="122.86681"
       y="85.845703"
       id="text28-4-2-2-5-21-1-6-9-9"><tspan
         sodipodi:role="line"
         id="tspan26-5-2-27-3-3-1-1-0-8"
         x="122.86681"
         y="85.845703"
         style="font-style:normal;font-variant:normal;font-weight:normal;font-stretch:normal;font-size:4.23333px;font-family:'Source Sans Pro';-inkscape-font-specification:'Source Sans Pro';fill:#808080;stroke-width:0.365306">Writer</tspan></text>
    <text
       xml:space="preserve"
       style="font-style:normal;font-weight:normal;font-size:4.23333px;line-height:1.25;font-family:sans-serif;text-align:start;letter-spacing:0px;word-spacing:0px;text-anchor:start;fill:#808080;fill-opacity:1;stroke:none;stroke-width:0.365306"
       x="149.61722"
       y="79.983376"
       id="text28-4-2-2-5-21-1-6-9-9-7"><tspan
         sodipodi:role="line"
         x="149.61722"
         y="79.983376"
         style="font-style:normal;font-variant:normal;font-weight:normal;font-stretch:normal;font-size:4.23333px;font-family:'Source Sans Pro';-inkscape-font-specification:'Source Sans Pro';text-align:start;text-anchor:start;fill:#808080;stroke-width:0.365306"
         id="tspan511">Calc</tspan></text>
    <text
       xml:space="preserve"
       style="font-style:normal;font-weight:normal;font-size:4.23333px;line-height:1.25;font-family:sans-serif;letter-spacing:0px;word-spacing:0px;fill:#808080;fill-opacity:1;stroke:none;stroke-width:0.365306"
       x="88.738564"
       y="56.855175"
       id="text28-4-2-2-5-21-1-6-9-2-7"><tspan
         sodipodi:role="line"
         id="tspan26-5-2-27-3-3-1-1-0-33-1"
         x="88.738564"
         y="56.855175"
         style="font-style:normal;font-variant:normal;font-weight:normal;font-stretch:normal;font-size:4.23333px;font-family:'Source Sans Pro';-inkscape-font-specification:'Source Sans Pro';fill:#808080;stroke-width:0.365306">Qcad</tspan></text>
    <path
       style="fill:#333333;fill-opacity:1;stroke-width:0.0457131"
       d="m 75.629512,42.247159 c -0.07804,-0.03397 -0.191179,-0.130876 -0.251426,-0.215348 l -0.109537,-0.153586 -0.01213,-5.417289 -0.01214,-5.417287 0.103585,-0.202056 c 0.201283,-0.392646 -0.05728,-0.368818 4.002186,-0.368818 3.021395,0 3.599308,0.01023 3.703485,0.06556 0.148678,0.07897 2.858048,2.794884 2.929996,2.937079 0.07895,0.156031 0.06031,0.478359 -0.03648,0.631561 -0.115438,0.182681 -5.322088,5.641724 -5.480561,5.746231 -0.178523,0.117735 -0.507921,0.10789 -0.690937,-0.02065 -0.169481,-0.119037 -2.719265,-2.914995 -2.845227,-3.119928 -0.100768,-0.163946 -0.109479,-0.437565 -0.01936,-0.607971 0.0359,-0.06789 0.709609,-0.763882 1.497112,-1.546646 1.244703,-1.237218 1.454228,-1.427161 1.603347,-1.453486 0.315486,-0.0557 0.481687,0.06834 1.606915,1.199248 l 1.047039,1.052322 -0.451141,0.485145 -0.451141,0.485146 -0.813043,-0.812101 -0.813043,-0.812099 -0.845683,0.844761 c -0.465133,0.464619 -0.845691,0.855534 -0.845691,0.8687 0,0.04293 1.659477,1.85123 1.698872,1.85123 0.04457,0 4.289559,-4.448382 4.289559,-4.495086 0,-0.01723 -0.437461,-0.468426 -0.972136,-1.002667 l -0.972129,-0.971347 -2.947779,0.01177 -2.947772,0.01177 -0.01163,4.582751 -0.01163,4.582752 h 2.960549 2.960549 l 0.981967,-0.982766 0.981967,-0.982766 -0.724366,-0.725427 c -0.626198,-0.627117 -0.71793,-0.737088 -0.676925,-0.811478 0.02607,-0.04733 0.229345,-0.26614 0.451669,-0.486248 l 0.404221,-0.400197 1.03463,1.040182 c 0.820164,0.824571 1.044214,1.075714 1.080886,1.211607 0.09737,0.360767 0.06797,0.399843 -1.447511,1.923239 -0.770897,0.774931 -1.45719,1.438345 -1.525079,1.474252 -0.178445,0.09438 -7.207169,0.09432 -7.423981,-4.6e-5 z"
       id="path595" />
    <text
       xml:space="preserve"
       style="font-style:normal;font-weight:normal;font-size:4.23333px;line-height:1.25;font-family:sans-serif;letter-spacing:0px;word-spacing:0px;fill:#808080;fill-opacity:1;stroke:none;stroke-width:0.365306"
       x="70.02874"
       y="26.428097"
       id="text28-4-2-2-5-21-1-6-9-2-8"><tspan
         sodipodi:role="line"
         id="tspan26-5-2-27-3-3-1-1-0-33-0"
         x="70.02874"
         y="26.428097"
         style="font-style:normal;font-variant:normal;font-weight:normal;font-stretch:normal;font-size:4.23333px;font-family:'Source Sans Pro';-inkscape-font-specification:'Source Sans Pro';fill:#808080;stroke-width:0.365306">BlenderBIM</tspan></text>
    <text
       xml:space="preserve"
       style="font-style:normal;font-weight:normal;font-size:4.23333px;line-height:1.25;font-family:sans-serif;letter-spacing:0px;word-spacing:0px;fill:#808080;fill-opacity:1;stroke:none;stroke-width:0.365306"
       x="101.89816"
       y="26.428093"
       id="text28-4-2-2-5-21-1-6-9-2-2"><tspan
         sodipodi:role="line"
         id="tspan26-5-2-27-3-3-1-1-0-33-6"
         x="101.89816"
         y="26.428093"
         style="font-style:normal;font-variant:normal;font-weight:normal;font-stretch:normal;font-size:4.23333px;font-family:'Source Sans Pro';-inkscape-font-specification:'Source Sans Pro';fill:#808080;stroke-width:0.365306">Blender Cycles</tspan></text>
    <text
       xml:space="preserve"
       style="font-style:normal;font-weight:normal;font-size:4.23333px;line-height:1.25;font-family:sans-serif;letter-spacing:0px;word-spacing:0px;fill:#808080;fill-opacity:1;stroke:none;stroke-width:0.365306"
       x="134.59613"
       y="67.963135"
       id="text28-4-2-2-5-21-1-6-9-9-1"><tspan
         sodipodi:role="line"
         id="tspan26-5-2-27-3-3-1-1-0-8-2"
         x="134.59613"
         y="67.963135"
         style="font-style:normal;font-variant:normal;font-weight:normal;font-stretch:normal;font-size:4.23333px;font-family:'Source Sans Pro';-inkscape-font-specification:'Source Sans Pro';fill:#808080;stroke-width:0.365306">LibreOffice</tspan></text>
  </g>
</svg>
